<?xml version="1.0" encoding="UTF-8" standalone="no"?>
<!-- Created with Inkscape (http://www.inkscape.org/) -->

<svg
   xmlns:dc="http://purl.org/dc/elements/1.1/"
   xmlns:cc="http://creativecommons.org/ns#"
   xmlns:rdf="http://www.w3.org/1999/02/22-rdf-syntax-ns#"
   xmlns:svg="http://www.w3.org/2000/svg"
   xmlns="http://www.w3.org/2000/svg"
   xmlns:sodipodi="http://sodipodi.sourceforge.net/DTD/sodipodi-0.dtd"
   xmlns:inkscape="http://www.inkscape.org/namespaces/inkscape"
   width="700"
   viewBox="0 0 35.450893 16.079613"
   version="1.1"
   id="svg987"
   inkscape:version="0.92.3 (2405546, 2018-03-11)"
   sodipodi:docname="figure-3.svg">
  <defs
     id="defs981">
    <marker
       inkscape:isstock="true"
       style="overflow:visible"
       id="marker1325"
       refX="0"
       refY="0"
       orient="auto"
       inkscape:stockid="Arrow1Mend">
      <path
         transform="matrix(-0.4,0,0,-0.4,-4,0)"
         style="fill:#000000;fill-opacity:1;fill-rule:evenodd;stroke:#000000;stroke-width:1.00000003pt;stroke-opacity:1"
         d="M 0,0 5,-5 -12.5,0 5,5 Z"
         id="path1323"
         inkscape:connector-curvature="0" />
    </marker>
  </defs>
  <sodipodi:namedview
     id="base"
     pagecolor="#ffffff"
     bordercolor="#666666"
     borderopacity="1.0"
     inkscape:pageopacity="0.0"
     inkscape:pageshadow="2"
     inkscape:zoom="15.839192"
     inkscape:cx="16.351859"
     inkscape:cy="8.5262287"
     inkscape:document-units="mm"
     inkscape:current-layer="g1581"
     showgrid="false"
     fit-margin-top="1"
     fit-margin-left="1"
     fit-margin-right="1"
     fit-margin-bottom="1"
     inkscape:window-width="1248"
     inkscape:window-height="706"
     inkscape:window-x="2158"
     inkscape:window-y="211"
     inkscape:window-maximized="0" />
  <metadata
     id="metadata984">
    <rdf:RDF>
      <cc:Work
         rdf:about="">
        <dc:format>image/svg+xml</dc:format>
        <dc:type
           rdf:resource="http://purl.org/dc/dcmitype/StillImage" />
        <dc:title></dc:title>
        <cc:license
           rdf:resource="http://creativecommons.org/publicdomain/zero/1.0/" />
      </cc:Work>
      <cc:License
         rdf:about="http://creativecommons.org/publicdomain/zero/1.0/">
        <cc:permits
           rdf:resource="http://creativecommons.org/ns#Reproduction" />
        <cc:permits
           rdf:resource="http://creativecommons.org/ns#Distribution" />
        <cc:permits
           rdf:resource="http://creativecommons.org/ns#DerivativeWorks" />
      </cc:License>
    </rdf:RDF>
  </metadata>
  <g
     inkscape:label="Layer 1"
     inkscape:groupmode="layer"
     id="layer1"
     transform="translate(-65.856384,-104.80668)">
    <rect
       style="opacity:1;vector-effect:none;fill:none;fill-opacity:1;fill-rule:evenodd;stroke:none;stroke-width:0.5291667;stroke-linecap:butt;stroke-linejoin:miter;stroke-miterlimit:4;stroke-dasharray:none;stroke-dashoffset:0;stroke-opacity:1"
       id="rect1583"
       width="33.450893"
       height="14.079613"
       x="66.856384"
       y="105.80668" />
    <g
       id="g1581"
       transform="translate(3.112016,-1.7618877e-6)">
      <path
         style="opacity:1;vector-effect:none;fill:none;fill-opacity:1;stroke:#000000;stroke-width:0.13996458;stroke-linecap:butt;stroke-linejoin:miter;stroke-miterlimit:4;stroke-dasharray:none;stroke-dashoffset:0;stroke-opacity:1;marker-end:url(#marker1325)"
         d="m 80.469814,109.80111 v 5.54034"
         id="path817"
         inkscape:connector-curvature="0"
         sodipodi:nodetypes="cc" />
      <g
         aria-label="outcome"
         style="font-style:normal;font-variant:normal;font-weight:normal;font-stretch:normal;font-size:0.84005207px;line-height:1.10000002;font-family:'DejaVu Sans';-inkscape-font-specification:'DejaVu Sans';text-align:start;letter-spacing:0px;word-spacing:0px;text-anchor:start;fill:#000000;fill-opacity:1;stroke:none;stroke-width:0.07000434"
         id="text87570">
        <path
           d="m 83.704266,115.72675 q -0.06071,0 -0.09598,0.0476 -0.03528,0.0472 -0.03528,0.12962 0,0.0824 0.03487,0.13003 0.03527,0.0472 0.09639,0.0472 0.0603,0 0.09557,-0.0476 0.03527,-0.0476 0.03527,-0.12962 0,-0.0816 -0.03527,-0.12921 -0.03528,-0.048 -0.09557,-0.048 z m 0,-0.064 q 0.09844,0 0.154639,0.064 0.0562,0.064 0.0562,0.1772 0,0.1128 -0.0562,0.1772 -0.05619,0.064 -0.154639,0.064 -0.09885,0 -0.155048,-0.064 -0.05579,-0.0644 -0.05579,-0.1772 0,-0.11321 0.05579,-0.1772 0.0562,-0.064 0.155048,-0.064 z"
           style="stroke-width:0.07000434"
           id="path3509" />
        <path
           d="m 84.032002,115.95194 v -0.2781 h 0.07547 v 0.27523 q 0,0.0652 0.02543,0.098 0.02543,0.0324 0.07629,0.0324 0.06112,0 0.09639,-0.039 0.03569,-0.039 0.03569,-0.10624 v -0.26046 h 0.07547 v 0.4594 h -0.07547 v -0.0705 q -0.02748,0.0418 -0.06399,0.0623 -0.0361,0.0201 -0.08409,0.0201 -0.07917,0 -0.120183,-0.0492 -0.04102,-0.0492 -0.04102,-0.14397 z m 0.189914,-0.28918 z"
           style="stroke-width:0.07000434"
           id="path3511" />
        <path
           d="m 84.647684,115.5434 v 0.13044 h 0.155459 v 0.0587 h -0.155459 v 0.24939 q 0,0.0562 0.01518,0.0722 0.01559,0.016 0.06276,0.016 h 0.07752 v 0.0632 h -0.07752 q -0.08737,0 -0.120594,-0.0324 -0.03322,-0.0328 -0.03322,-0.11896 v -0.24939 h -0.05537 v -0.0587 h 0.05537 v -0.13044 z"
           style="stroke-width:0.07000434"
           id="path3513" />
        <path
           d="m 85.233424,115.69147 v 0.0706 q -0.03199,-0.0176 -0.0644,-0.0263 -0.03199,-0.009 -0.06481,-0.009 -0.07342,0 -0.114031,0.0468 -0.04061,0.0464 -0.04061,0.13044 0,0.0841 0.04061,0.13085 0.04061,0.0463 0.114031,0.0463 0.03281,0 0.06481,-0.009 0.0324,-0.009 0.0644,-0.0267 v 0.0697 q -0.03158,0.0148 -0.06563,0.0221 -0.03364,0.007 -0.07178,0.007 -0.103776,0 -0.164893,-0.0652 -0.06112,-0.0652 -0.06112,-0.17597 0,-0.11239 0.06153,-0.17679 0.06194,-0.0644 0.169405,-0.0644 0.03487,0 0.06809,0.007 0.03323,0.007 0.0644,0.0213 z"
           style="stroke-width:0.07000434"
           id="path3515" />
        <path
           d="m 85.543521,115.72675 q -0.06071,0 -0.09598,0.0476 -0.03528,0.0472 -0.03528,0.12962 0,0.0824 0.03487,0.13003 0.03528,0.0472 0.09639,0.0472 0.0603,0 0.09557,-0.0476 0.03528,-0.0476 0.03528,-0.12962 0,-0.0816 -0.03528,-0.12921 -0.03527,-0.048 -0.09557,-0.048 z m 0,-0.064 q 0.09844,0 0.154639,0.064 0.05619,0.064 0.05619,0.1772 0,0.1128 -0.05619,0.1772 -0.0562,0.064 -0.154639,0.064 -0.09885,0 -0.155049,-0.064 -0.05578,-0.0644 -0.05578,-0.1772 0,-0.11321 0.05578,-0.1772 0.0562,-0.064 0.155049,-0.064 z"
           style="stroke-width:0.07000434"
           id="path3517" />
        <path
           d="m 86.236728,115.76203 q 0.0283,-0.0509 0.06768,-0.0751 0.03938,-0.0242 0.0927,-0.0242 0.07178,0 0.110749,0.0504 0.03897,0.05 0.03897,0.14275 v 0.27728 h -0.07588 v -0.27482 q 0,-0.066 -0.02338,-0.098 -0.02338,-0.032 -0.07137,-0.032 -0.05866,0 -0.0927,0.039 -0.03405,0.039 -0.03405,0.10623 v 0.25965 h -0.07588 v -0.27482 q 0,-0.0664 -0.02338,-0.098 -0.02338,-0.032 -0.07219,-0.032 -0.05784,0 -0.09188,0.0394 -0.03405,0.039 -0.03405,0.10582 v 0.25965 h -0.07588 v -0.4594 h 0.07588 v 0.0714 q 0.02584,-0.0422 0.06194,-0.0623 0.0361,-0.0201 0.08573,-0.0201 0.05004,0 0.08491,0.0254 0.03528,0.0254 0.05209,0.0738 z"
           style="stroke-width:0.07000434"
           id="path3519" />
        <path
           d="m 87.090726,115.88467 v 0.0369 h -0.347013 q 0.0049,0.0779 0.04676,0.11895 0.04225,0.0406 0.117312,0.0406 0.04348,0 0.08409,-0.0107 0.04102,-0.0107 0.08122,-0.032 v 0.0714 q -0.04061,0.0172 -0.08327,0.0263 -0.04266,0.009 -0.08655,0.009 -0.109928,0 -0.174327,-0.064 -0.06399,-0.064 -0.06399,-0.1731 0,-0.1128 0.06071,-0.17884 0.06112,-0.0664 0.164483,-0.0664 0.0927,0 0.146434,0.0599 0.05414,0.0595 0.05414,0.16202 z m -0.07547,-0.0221 q -8.2e-4,-0.0619 -0.03486,-0.0988 -0.03364,-0.0369 -0.08942,-0.0369 -0.06317,0 -0.101315,0.0357 -0.03774,0.0357 -0.04348,0.10049 z"
           style="stroke-width:0.07000434"
           id="path3521" />
      </g>
      <g
         aria-label="choice"
         style="font-style:normal;font-variant:normal;font-weight:normal;font-stretch:normal;font-size:0.84005207px;line-height:1.10000002;font-family:'DejaVu Sans';-inkscape-font-specification:'DejaVu Sans';text-align:start;letter-spacing:0px;word-spacing:0px;text-anchor:start;fill:#000000;fill-opacity:1;stroke:none;stroke-width:0.07000434"
         id="text87574">
        <path
           d="m 83.765385,109.59109 v 0.0706 q -0.03199,-0.0176 -0.0644,-0.0263 -0.03199,-0.009 -0.06481,-0.009 -0.07342,0 -0.114031,0.0468 -0.04061,0.0464 -0.04061,0.13044 0,0.0841 0.04061,0.13085 0.04061,0.0464 0.114031,0.0464 0.03281,0 0.06481,-0.009 0.0324,-0.009 0.0644,-0.0267 v 0.0697 q -0.03158,0.0148 -0.06563,0.0221 -0.03363,0.007 -0.07178,0.007 -0.103776,0 -0.164893,-0.0652 -0.06112,-0.0652 -0.06112,-0.17597 0,-0.11239 0.06153,-0.17679 0.06194,-0.0644 0.169406,-0.0644 0.03486,0 0.06809,0.007 0.03322,0.007 0.0644,0.0213 z"
           style="stroke-width:0.07000434"
           id="path3524" />
        <path
           d="m 84.279343,109.75558 v 0.27728 h -0.07547 v -0.27482 q 0,-0.0652 -0.02543,-0.0976 -0.02543,-0.0324 -0.07629,-0.0324 -0.06112,0 -0.09639,0.039 -0.03528,0.039 -0.03528,0.10623 v 0.25965 h -0.07588 v -0.63824 h 0.07588 v 0.25021 q 0.02707,-0.0414 0.06358,-0.0619 0.03692,-0.0205 0.08491,-0.0205 0.07917,0 0.119773,0.0492 0.04061,0.0488 0.04061,0.14398 z"
           style="stroke-width:0.07000434"
           id="path3526" />
        <path
           d="m 84.608719,109.62637 q -0.06071,0 -0.09598,0.0476 -0.03527,0.0472 -0.03527,0.12962 0,0.0824 0.03486,0.13003 0.03528,0.0472 0.09639,0.0472 0.0603,0 0.09557,-0.0476 0.03528,-0.0476 0.03528,-0.12962 0,-0.0816 -0.03528,-0.12921 -0.03528,-0.048 -0.09557,-0.048 z m 0,-0.064 q 0.09844,0 0.154638,0.064 0.0562,0.064 0.0562,0.1772 0,0.1128 -0.0562,0.1772 -0.0562,0.064 -0.154638,0.064 -0.09885,0 -0.155049,-0.064 -0.05579,-0.0644 -0.05579,-0.1772 0,-0.11321 0.05579,-0.1772 0.0562,-0.064 0.155049,-0.064 z"
           style="stroke-width:0.07000434"
           id="path3528" />
        <path
           d="m 84.944247,109.57346 h 0.07547 v 0.4594 h -0.07547 z m 0,-0.17884 h 0.07547 v 0.0956 h -0.07547 z"
           style="stroke-width:0.07000434"
           id="path3530" />
        <path
           d="m 85.507837,109.59109 v 0.0706 q -0.03199,-0.0176 -0.0644,-0.0263 -0.03199,-0.009 -0.06481,-0.009 -0.07342,0 -0.114031,0.0468 -0.04061,0.0464 -0.04061,0.13044 0,0.0841 0.04061,0.13085 0.04061,0.0464 0.114031,0.0464 0.03281,0 0.06481,-0.009 0.0324,-0.009 0.0644,-0.0267 v 0.0697 q -0.03158,0.0148 -0.06563,0.0221 -0.03363,0.007 -0.07178,0.007 -0.103776,0 -0.164893,-0.0652 -0.06112,-0.0652 -0.06112,-0.17597 0,-0.11239 0.06153,-0.17679 0.06194,-0.0644 0.169405,-0.0644 0.03487,0 0.06809,0.007 0.03323,0.007 0.0644,0.0213 z"
           style="stroke-width:0.07000434"
           id="path3532" />
        <path
           d="m 86.03287,109.78429 v 0.0369 h -0.347014 q 0.0049,0.0779 0.04676,0.11895 0.04225,0.0406 0.117312,0.0406 0.04348,0 0.08409,-0.0107 0.04102,-0.0107 0.08122,-0.032 v 0.0714 q -0.04061,0.0172 -0.08327,0.0263 -0.04266,0.009 -0.08655,0.009 -0.109929,0 -0.174328,-0.064 -0.06399,-0.064 -0.06399,-0.1731 0,-0.1128 0.06071,-0.17884 0.06112,-0.0664 0.164483,-0.0664 0.0927,0 0.146435,0.0599 0.05414,0.0595 0.05414,0.16202 z m -0.07547,-0.0221 q -8.2e-4,-0.0619 -0.03486,-0.0988 -0.03364,-0.0369 -0.08942,-0.0369 -0.06317,0 -0.101315,0.0357 -0.03774,0.0357 -0.04348,0.10049 z"
           style="stroke-width:0.07000434"
           id="path3534" />
      </g>
      <circle
         id="path867"
         style="fill:#000000;stroke:none;stroke-width:0.26458332"
         cx="80.46981"
         cy="115.90148"
         r="0.39687505" />
      <circle
         id="path869"
         style="fill:#000000;stroke:none;stroke-width:0.26458332"
         cx="80.46981"
         cy="109.80111"
         r="0.39687505" />
    </g>
  </g>
</svg>
