<?xml version="1.0" encoding="UTF-8" standalone="no"?>
<!-- Created with Inkscape (http://www.inkscape.org/) -->

<svg
   xmlns:dc="http://purl.org/dc/elements/1.1/"
   xmlns:cc="http://creativecommons.org/ns#"
   xmlns:rdf="http://www.w3.org/1999/02/22-rdf-syntax-ns#"
   xmlns:svg="http://www.w3.org/2000/svg"
   xmlns="http://www.w3.org/2000/svg"
   xmlns:xlink="http://www.w3.org/1999/xlink"
   xmlns:sodipodi="http://sodipodi.sourceforge.net/DTD/sodipodi-0.dtd"
   xmlns:inkscape="http://www.inkscape.org/namespaces/inkscape"
   width="1000"
   viewBox="0 0 168.02877 105.29887"
   version="1.1"
   id="svg8"
   inkscape:version="0.92.3 (2405546, 2018-03-11)"
   sodipodi:docname="figure-1.svg">
  <defs
     id="defs2">
    <marker
       inkscape:stockid="Arrow1Mend"
       orient="auto"
       refY="0"
       refX="0"
       id="marker31395"
       style="overflow:visible"
       inkscape:isstock="true">
      <path
         inkscape:connector-curvature="0"
         id="path31393"
         d="M 0,0 5,-5 -12.5,0 5,5 Z"
         style="fill:#000000;fill-opacity:1;fill-rule:evenodd;stroke:#000000;stroke-width:1.00000003pt;stroke-opacity:1"
         transform="matrix(-0.4,0,0,-0.4,-4,0)" />
    </marker>
    <marker
       inkscape:stockid="Arrow1Mstart"
       orient="auto"
       refY="0"
       refX="0"
       id="marker31233"
       style="overflow:visible"
       inkscape:isstock="true">
      <path
         inkscape:connector-curvature="0"
         id="path31231"
         d="M 0,0 5,-5 -12.5,0 5,5 Z"
         style="fill:#000000;fill-opacity:1;fill-rule:evenodd;stroke:#000000;stroke-width:1.00000003pt;stroke-opacity:1"
         transform="matrix(0.4,0,0,0.4,4,0)" />
    </marker>
    <marker
       inkscape:stockid="Arrow1Mstart"
       orient="auto"
       refY="0"
       refX="0"
       id="marker4331"
       style="overflow:visible"
       inkscape:isstock="true">
      <path
         id="path4329"
         d="M 0,0 5,-5 -12.5,0 5,5 Z"
         style="fill:#000000;fill-opacity:1;fill-rule:evenodd;stroke:#000000;stroke-width:1.00000003pt;stroke-opacity:1"
         transform="matrix(0.4,0,0,0.4,4,0)"
         inkscape:connector-curvature="0" />
    </marker>
    <marker
       inkscape:isstock="true"
       style="overflow:visible"
       id="marker3447"
       refX="0"
       refY="0"
       orient="auto"
       inkscape:stockid="Arrow1Mend">
      <path
         transform="matrix(-0.4,0,0,-0.4,-4,0)"
         style="fill:#000000;fill-opacity:1;fill-rule:evenodd;stroke:#000000;stroke-width:1.00000003pt;stroke-opacity:1"
         d="M 0,0 5,-5 -12.5,0 5,5 Z"
         id="path3445"
         inkscape:connector-curvature="0" />
    </marker>
    <marker
       inkscape:stockid="Arrow1Mend"
       orient="auto"
       refY="0"
       refX="0"
       id="marker1081"
       style="overflow:visible"
       inkscape:isstock="true"
       inkscape:collect="always">
      <path
         inkscape:connector-curvature="0"
         id="path1079"
         d="M 0,0 5,-5 -12.5,0 5,5 Z"
         style="fill:#000000;fill-opacity:1;fill-rule:evenodd;stroke:#000000;stroke-width:1.00000003pt;stroke-opacity:1"
         transform="matrix(-0.4,0,0,-0.4,-4,0)" />
    </marker>
    <marker
       inkscape:isstock="true"
       style="overflow:visible"
       id="marker91686"
       refX="0"
       refY="0"
       orient="auto"
       inkscape:stockid="Arrow1Mstart">
      <path
         inkscape:connector-curvature="0"
         transform="matrix(0.4,0,0,0.4,4,0)"
         style="fill:#000000;fill-opacity:1;fill-rule:evenodd;stroke:#000000;stroke-width:1.00000003pt;stroke-opacity:1"
         d="M 0,0 5,-5 -12.5,0 5,5 Z"
         id="path91684" />
    </marker>
    <marker
       inkscape:stockid="Arrow1Mend"
       orient="auto"
       refY="0"
       refX="0"
       id="marker90424"
       style="overflow:visible"
       inkscape:isstock="true">
      <path
         inkscape:connector-curvature="0"
         id="path90422"
         d="M 0,0 5,-5 -12.5,0 5,5 Z"
         style="fill:#000000;fill-opacity:1;fill-rule:evenodd;stroke:#000000;stroke-width:1.00000003pt;stroke-opacity:1"
         transform="matrix(-0.4,0,0,-0.4,-4,0)" />
    </marker>
    <marker
       inkscape:stockid="Arrow1Mend"
       orient="auto"
       refY="0"
       refX="0"
       id="marker2791"
       style="overflow:visible"
       inkscape:isstock="true">
      <path
         id="path2789"
         d="M 0,0 5,-5 -12.5,0 5,5 Z"
         style="fill:#000000;fill-opacity:1;fill-rule:evenodd;stroke:#000000;stroke-width:1.00000003pt;stroke-opacity:1"
         transform="matrix(-0.4,0,0,-0.4,-4,0)"
         inkscape:connector-curvature="0" />
    </marker>
    <marker
       inkscape:stockid="Arrow1Mend"
       orient="auto"
       refY="0"
       refX="0"
       id="marker2719"
       style="overflow:visible"
       inkscape:isstock="true">
      <path
         id="path2717"
         d="M 0,0 5,-5 -12.5,0 5,5 Z"
         style="fill:#000000;fill-opacity:1;fill-rule:evenodd;stroke:#000000;stroke-width:1.00000003pt;stroke-opacity:1"
         transform="matrix(-0.4,0,0,-0.4,-4,0)"
         inkscape:connector-curvature="0" />
    </marker>
    <marker
       inkscape:isstock="true"
       style="overflow:visible"
       id="marker1377"
       refX="0"
       refY="0"
       orient="auto"
       inkscape:stockid="Arrow1Mend">
      <path
         transform="matrix(-0.4,0,0,-0.4,-4,0)"
         style="fill:#000000;fill-opacity:1;fill-rule:evenodd;stroke:#000000;stroke-width:1.00000003pt;stroke-opacity:1"
         d="M 0,0 5,-5 -12.5,0 5,5 Z"
         id="path1375"
         inkscape:connector-curvature="0" />
    </marker>
    <marker
       inkscape:isstock="true"
       style="overflow:visible"
       id="marker1325"
       refX="0"
       refY="0"
       orient="auto"
       inkscape:stockid="Arrow1Mend">
      <path
         transform="matrix(-0.4,0,0,-0.4,-4,0)"
         style="fill:#000000;fill-opacity:1;fill-rule:evenodd;stroke:#000000;stroke-width:1.00000003pt;stroke-opacity:1"
         d="M 0,0 5,-5 -12.5,0 5,5 Z"
         id="path1323"
         inkscape:connector-curvature="0" />
    </marker>
    <marker
       inkscape:isstock="true"
       style="overflow:visible"
       id="marker1279"
       refX="0"
       refY="0"
       orient="auto"
       inkscape:stockid="Arrow1Mend"
       inkscape:collect="always">
      <path
         transform="matrix(-0.4,0,0,-0.4,-4,0)"
         style="fill:#000000;fill-opacity:1;fill-rule:evenodd;stroke:#000000;stroke-width:1.00000003pt;stroke-opacity:1"
         d="M 0,0 5,-5 -12.5,0 5,5 Z"
         id="path1277"
         inkscape:connector-curvature="0" />
    </marker>
    <marker
       inkscape:isstock="true"
       style="overflow:visible"
       id="marker1239"
       refX="0"
       refY="0"
       orient="auto"
       inkscape:stockid="Arrow1Mend"
       inkscape:collect="always">
      <path
         transform="matrix(-0.4,0,0,-0.4,-4,0)"
         style="fill:#000000;fill-opacity:1;fill-rule:evenodd;stroke:#000000;stroke-width:1.00000003pt;stroke-opacity:1"
         d="M 0,0 5,-5 -12.5,0 5,5 Z"
         id="path1237"
         inkscape:connector-curvature="0" />
    </marker>
    <marker
       inkscape:isstock="true"
       style="overflow:visible"
       id="marker1205"
       refX="0"
       refY="0"
       orient="auto"
       inkscape:stockid="Arrow1Mend"
       inkscape:collect="always">
      <path
         transform="matrix(-0.4,0,0,-0.4,-4,0)"
         style="fill:#000000;fill-opacity:1;fill-rule:evenodd;stroke:#000000;stroke-width:1.00000003pt;stroke-opacity:1"
         d="M 0,0 5,-5 -12.5,0 5,5 Z"
         id="path1203"
         inkscape:connector-curvature="0" />
    </marker>
    <marker
       inkscape:isstock="true"
       style="overflow:visible"
       id="marker1155"
       refX="0"
       refY="0"
       orient="auto"
       inkscape:stockid="Arrow1Mend">
      <path
         transform="matrix(-0.4,0,0,-0.4,-4,0)"
         style="fill:#000000;fill-opacity:1;fill-rule:evenodd;stroke:#000000;stroke-width:1.00000003pt;stroke-opacity:1"
         d="M 0,0 5,-5 -12.5,0 5,5 Z"
         id="path1153"
         inkscape:connector-curvature="0" />
    </marker>
  </defs>
  <sodipodi:namedview
     id="base"
     pagecolor="#ffffff"
     bordercolor="#666666"
     borderopacity="1.0"
     inkscape:pageopacity="0.0"
     inkscape:pageshadow="2"
     inkscape:zoom="5.6"
     inkscape:cx="70.358663"
     inkscape:cy="27.737179"
     inkscape:document-units="mm"
     inkscape:current-layer="g31614"
     showgrid="false"
     inkscape:window-width="1920"
     inkscape:window-height="1164"
     inkscape:window-x="0"
     inkscape:window-y="0"
     inkscape:window-maximized="1"
     fit-margin-top="5"
     fit-margin-left="5"
     fit-margin-right="5"
     fit-margin-bottom="5" />
  <metadata
     id="metadata5">
    <rdf:RDF>
      <cc:Work
         rdf:about="">
        <dc:format>image/svg+xml</dc:format>
        <dc:type
           rdf:resource="http://purl.org/dc/dcmitype/StillImage" />
        <dc:title></dc:title>
        <cc:license
           rdf:resource="http://creativecommons.org/publicdomain/zero/1.0/" />
      </cc:Work>
      <cc:License
         rdf:about="http://creativecommons.org/publicdomain/zero/1.0/">
        <cc:permits
           rdf:resource="http://creativecommons.org/ns#Reproduction" />
        <cc:permits
           rdf:resource="http://creativecommons.org/ns#Distribution" />
        <cc:permits
           rdf:resource="http://creativecommons.org/ns#DerivativeWorks" />
      </cc:License>
    </rdf:RDF>
  </metadata>
  <g
     inkscape:label="Layer 1"
     inkscape:groupmode="layer"
     id="layer1"
     transform="translate(-5.3769799,-85.411574)">
    <g
       id="g31614">
      <g
         id="g2701">
        <path
           style="opacity:1;vector-effect:none;fill:none;fill-opacity:1;stroke:#000000;stroke-width:0.52899998;stroke-linecap:butt;stroke-linejoin:miter;stroke-miterlimit:4;stroke-dasharray:none;stroke-dashoffset:0;stroke-opacity:1;marker-end:url(#marker1325)"
           d="M 89.391367,91.947914 V 112.88779"
           id="path817"
           inkscape:connector-curvature="0"
           sodipodi:nodetypes="cc" />
        <path
           inkscape:connector-curvature="0"
           id="path819"
           d="m 89.391367,115.00446 v 20.93988"
           style="opacity:1;vector-effect:none;fill:none;fill-opacity:1;stroke:#000000;stroke-width:0.52899998;stroke-linecap:butt;stroke-linejoin:miter;stroke-miterlimit:4;stroke-dasharray:none;stroke-dashoffset:0;stroke-opacity:1;marker-end:url(#marker1279)"
           sodipodi:nodetypes="cc" />
        <path
           sodipodi:nodetypes="cc"
           inkscape:connector-curvature="0"
           id="path823"
           d="M 89.391367,138.06101 64.923546,159.35882"
           style="opacity:1;vector-effect:none;fill:none;fill-opacity:1;stroke:#000000;stroke-width:0.52899998;stroke-linecap:butt;stroke-linejoin:miter;stroke-miterlimit:4;stroke-dasharray:none;stroke-dashoffset:0;stroke-opacity:1;marker-end:url(#marker1205)" />
        <path
           style="opacity:1;vector-effect:none;fill:none;fill-opacity:1;stroke:#000000;stroke-width:0.52899998;stroke-linecap:butt;stroke-linejoin:miter;stroke-miterlimit:4;stroke-dasharray:none;stroke-dashoffset:0;stroke-opacity:1;marker-end:url(#marker1239)"
           d="M 89.391367,138.06101 38.837051,160.149"
           id="path831"
           inkscape:connector-curvature="0"
           sodipodi:nodetypes="cc" />
        <path
           style="opacity:1;vector-effect:none;fill:none;fill-opacity:1;stroke:#000000;stroke-width:0.5291667;stroke-linecap:butt;stroke-linejoin:miter;stroke-miterlimit:4;stroke-dasharray:none;stroke-dashoffset:0;stroke-opacity:1;marker-start:url(#marker31233)"
           d="M 87.676876,182.26921 62.87351,161.11756"
           id="path835"
           inkscape:connector-curvature="0"
           sodipodi:nodetypes="cc" />
        <path
           sodipodi:nodetypes="cc"
           inkscape:connector-curvature="0"
           id="path843"
           d="M 87.052759,183.35559 36.4747,161.11756"
           style="opacity:1;vector-effect:none;fill:none;fill-opacity:1;stroke:#000000;stroke-width:0.5291667;stroke-linecap:butt;stroke-linejoin:miter;stroke-miterlimit:4;stroke-dasharray:none;stroke-dashoffset:0;stroke-opacity:1;marker-start:url(#marker91686)" />
        <path
           sodipodi:nodetypes="cc"
           inkscape:connector-curvature="0"
           id="path2715"
           d="M 89.391367,138.06101 139.94568,160.149"
           style="opacity:1;vector-effect:none;fill:none;fill-opacity:1;stroke:#000000;stroke-width:0.52899998;stroke-linecap:butt;stroke-linejoin:miter;stroke-miterlimit:4;stroke-dasharray:none;stroke-dashoffset:0;stroke-opacity:1;marker-end:url(#marker2791)" />
        <use
           height="100%"
           width="100%"
           x="0"
           y="0"
           xlink:href="#path835"
           id="use7265"
           transform="matrix(-1,0,0,1,178.78273,0)" />
        <use
           height="100%"
           width="100%"
           x="0"
           y="0"
           xlink:href="#path843"
           id="use7267"
           transform="matrix(-1,0,0,1,178.78273,0)" />
        <path
           d="m 101.96023,137.26725 v 0.26666 q -0.12093,-0.0667 -0.2434,-0.0992 -0.12092,-0.0341 -0.24495,-0.0341 -0.2775,0 -0.43098,0.17673 -0.15348,0.17519 -0.15348,0.493 0,0.31781 0.15348,0.49454 0.15348,0.17518 0.43098,0.17518 0.12403,0 0.24495,-0.0325 0.12247,-0.0341 0.2434,-0.10077 v 0.26355 q -0.11938,0.0558 -0.24805,0.0837 -0.12712,0.0279 -0.2713,0.0279 -0.39223,0 -0.62322,-0.2465 -0.23099,-0.24649 -0.23099,-0.66507 0,-0.42478 0.23254,-0.66818 0.2341,-0.2434 0.64027,-0.2434 0.13178,0 0.25735,0.0279 0.12557,0.0263 0.2434,0.0806 z"
           style="font-style:normal;font-variant:normal;font-weight:normal;font-stretch:normal;font-size:medium;line-height:1.10000002;font-family:'DejaVu Sans';-inkscape-font-specification:'DejaVu Sans';text-align:start;letter-spacing:0px;word-spacing:0px;text-anchor:start;fill:#000000;fill-opacity:1;stroke:none;stroke-width:0.26458332"
           id="path2323"
           inkscape:connector-curvature="0" />
        <path
           d="m 103.24852,138.06411 q -0.34572,0 -0.47904,0.0791 -0.13333,0.0791 -0.13333,0.26975 0,0.15193 0.0992,0.24185 0.10077,0.0884 0.27285,0.0884 0.2372,0 0.37983,-0.16743 0.14417,-0.16898 0.14417,-0.44803 v -0.0636 z m 0.56896,-0.11783 v 0.99064 h -0.28526 v -0.26355 q -0.0977,0.15813 -0.24339,0.23409 -0.14573,0.0744 -0.35657,0.0744 -0.26665,0 -0.42478,-0.14883 -0.15658,-0.15038 -0.15658,-0.40153 0,-0.293 0.19534,-0.44183 0.19688,-0.14883 0.58601,-0.14883 h 0.39997 v -0.0279 q 0,-0.19689 -0.13022,-0.30386 -0.12868,-0.10852 -0.36277,-0.10852 -0.14883,0 -0.2899,0.0357 -0.14108,0.0357 -0.27131,0.10697 v -0.26355 q 0.15658,-0.0605 0.30386,-0.0899 0.14728,-0.031 0.28681,-0.031 0.37672,0 0.56275,0.19534 0.18604,0.19534 0.18604,0.59221 z"
           style="font-style:normal;font-variant:normal;font-weight:normal;font-stretch:normal;font-size:medium;line-height:1.10000002;font-family:'DejaVu Sans';-inkscape-font-specification:'DejaVu Sans';text-align:start;letter-spacing:0px;word-spacing:0px;text-anchor:start;fill:#000000;fill-opacity:1;stroke:none;stroke-width:0.26458332"
           id="path2325"
           inkscape:connector-curvature="0" />
        <path
           d="m 104.68254,138.67647 v 0.92087 h -0.2868 v -2.39675 h 0.2868 v 0.26355 q 0.0899,-0.15503 0.22634,-0.22944 0.13798,-0.076 0.32867,-0.076 0.31626,0 0.51314,0.25115 0.19844,0.25115 0.19844,0.66043 0,0.40927 -0.19844,0.66042 -0.19688,0.25115 -0.51314,0.25115 -0.19069,0 -0.32867,-0.0744 -0.13642,-0.076 -0.22634,-0.23099 z m 0.97048,-0.60616 q 0,-0.31471 -0.13022,-0.493 -0.12867,-0.17983 -0.35502,-0.17983 -0.22634,0 -0.35656,0.17983 -0.12868,0.17829 -0.12868,0.493 0,0.31471 0.12868,0.49454 0.13022,0.17828 0.35656,0.17828 0.22635,0 0.35502,-0.17828 0.13022,-0.17983 0.13022,-0.49454 z"
           style="font-style:normal;font-variant:normal;font-weight:normal;font-stretch:normal;font-size:medium;line-height:1.10000002;font-family:'DejaVu Sans';-inkscape-font-specification:'DejaVu Sans';text-align:start;letter-spacing:0px;word-spacing:0px;text-anchor:start;fill:#000000;fill-opacity:1;stroke:none;stroke-width:0.26458332"
           id="path2327"
           inkscape:connector-curvature="0" />
        <path
           d="m 106.70412,136.7076 v 0.49299 h 0.58756 v 0.22169 h -0.58756 v 0.94258 q 0,0.21239 0.0574,0.27285 0.0589,0.0605 0.2372,0.0605 h 0.293 v 0.23874 h -0.293 q -0.33021,0 -0.45579,-0.12247 -0.12557,-0.12403 -0.12557,-0.44959 v -0.94258 h -0.20929 v -0.22169 h 0.20929 v -0.49299 z"
           style="font-style:normal;font-variant:normal;font-weight:normal;font-stretch:normal;font-size:medium;line-height:1.10000002;font-family:'DejaVu Sans';-inkscape-font-specification:'DejaVu Sans';text-align:start;letter-spacing:0px;word-spacing:0px;text-anchor:start;fill:#000000;fill-opacity:1;stroke:none;stroke-width:0.26458332"
           id="path2329"
           inkscape:connector-curvature="0" />
        <path
           d="m 108.4575,138.06411 q -0.34571,0 -0.47904,0.0791 -0.13332,0.0791 -0.13332,0.26975 0,0.15193 0.0992,0.24185 0.10077,0.0884 0.27285,0.0884 0.23719,0 0.37982,-0.16743 0.14418,-0.16898 0.14418,-0.44803 v -0.0636 z m 0.56896,-0.11783 v 0.99064 h -0.28525 v -0.26355 q -0.0977,0.15813 -0.2434,0.23409 -0.14573,0.0744 -0.35657,0.0744 -0.26665,0 -0.42478,-0.14883 -0.15658,-0.15038 -0.15658,-0.40153 0,-0.293 0.19534,-0.44183 0.19689,-0.14883 0.58601,-0.14883 h 0.39998 v -0.0279 q 0,-0.19689 -0.13023,-0.30386 -0.12867,-0.10852 -0.36277,-0.10852 -0.14882,0 -0.2899,0.0357 -0.14108,0.0357 -0.2713,0.10697 v -0.26355 q 0.15658,-0.0605 0.30386,-0.0899 0.14727,-0.031 0.2868,-0.031 0.37672,0 0.56276,0.19534 0.18603,0.19534 0.18603,0.59221 z"
           style="font-style:normal;font-variant:normal;font-weight:normal;font-stretch:normal;font-size:medium;line-height:1.10000002;font-family:'DejaVu Sans';-inkscape-font-specification:'DejaVu Sans';text-align:start;letter-spacing:0px;word-spacing:0px;text-anchor:start;fill:#000000;fill-opacity:1;stroke:none;stroke-width:0.26458332"
           id="path2331"
           inkscape:connector-curvature="0" />
        <path
           d="m 109.61557,137.20059 h 0.28526 v 1.73633 h -0.28526 z m 0,-0.67593 h 0.28526 v 0.36122 h -0.28526 z"
           style="font-style:normal;font-variant:normal;font-weight:normal;font-stretch:normal;font-size:medium;line-height:1.10000002;font-family:'DejaVu Sans';-inkscape-font-specification:'DejaVu Sans';text-align:start;letter-spacing:0px;word-spacing:0px;text-anchor:start;fill:#000000;fill-opacity:1;stroke:none;stroke-width:0.26458332"
           id="path2333"
           inkscape:connector-curvature="0" />
        <path
           d="m 111.93946,137.88892 v 1.048 h -0.28525 v -1.0387 q 0,-0.24649 -0.0961,-0.36897 -0.0961,-0.12247 -0.28835,-0.12247 -0.231,0 -0.36432,0.14728 -0.13333,0.14728 -0.13333,0.40152 v 0.98134 h -0.2868 v -1.73633 h 0.2868 v 0.26975 q 0.10232,-0.15658 0.2403,-0.23409 0.13952,-0.0775 0.32091,-0.0775 0.2992,0 0.45268,0.18604 0.15348,0.18448 0.15348,0.54415 z"
           style="font-style:normal;font-variant:normal;font-weight:normal;font-stretch:normal;font-size:medium;line-height:1.10000002;font-family:'DejaVu Sans';-inkscape-font-specification:'DejaVu Sans';text-align:start;letter-spacing:0px;word-spacing:0px;text-anchor:start;fill:#000000;fill-opacity:1;stroke:none;stroke-width:0.26458332"
           id="path2335"
           inkscape:connector-curvature="0" />
        <path
           d="m 114.66488,138.0486 q 0,-0.31006 -0.12868,-0.48059 -0.12712,-0.17053 -0.35812,-0.17053 -0.22944,0 -0.35811,0.17053 -0.12713,0.17053 -0.12713,0.48059 0,0.30851 0.12713,0.47904 0.12867,0.17054 0.35811,0.17054 0.231,0 0.35812,-0.17054 0.12868,-0.17053 0.12868,-0.47904 z m 0.28525,0.67283 q 0,0.44338 -0.19689,0.65887 -0.19688,0.21704 -0.60306,0.21704 -0.15038,0 -0.2837,-0.0232 -0.13333,-0.0217 -0.2589,-0.0682 v -0.2775 q 0.12557,0.0682 0.24804,0.10076 0.12248,0.0326 0.2496,0.0326 0.2806,0 0.42013,-0.14728 0.13953,-0.14572 0.13953,-0.44183 v -0.14108 q -0.0884,0.15348 -0.22635,0.22945 -0.13797,0.076 -0.33021,0.076 -0.31936,0 -0.5147,-0.2434 -0.19533,-0.24339 -0.19533,-0.64492 0,-0.40307 0.19533,-0.64647 0.19534,-0.2434 0.5147,-0.2434 0.19224,0 0.33021,0.076 0.13798,0.076 0.22635,0.22944 v -0.26355 h 0.28525 z"
           style="font-style:normal;font-variant:normal;font-weight:normal;font-stretch:normal;font-size:medium;line-height:1.10000002;font-family:'DejaVu Sans';-inkscape-font-specification:'DejaVu Sans';text-align:start;letter-spacing:0px;word-spacing:0px;text-anchor:start;fill:#000000;fill-opacity:1;stroke:none;stroke-width:0.26458332"
           id="path2337"
           inkscape:connector-curvature="0" />
        <path
           d="m 115.53769,137.20059 h 0.28526 v 1.73633 h -0.28526 z m 0,-0.67593 h 0.28526 v 0.36122 h -0.28526 z"
           style="font-style:normal;font-variant:normal;font-weight:normal;font-stretch:normal;font-size:medium;line-height:1.10000002;font-family:'DejaVu Sans';-inkscape-font-specification:'DejaVu Sans';text-align:start;letter-spacing:0px;word-spacing:0px;text-anchor:start;fill:#000000;fill-opacity:1;stroke:none;stroke-width:0.26458332"
           id="path2339"
           inkscape:connector-curvature="0" />
        <path
           d="m 116.21362,137.20059 h 0.30231 l 0.5426,1.45728 0.5426,-1.45728 h 0.30231 l -0.65112,1.73633 h -0.38758 z"
           style="font-style:normal;font-variant:normal;font-weight:normal;font-stretch:normal;font-size:medium;line-height:1.10000002;font-family:'DejaVu Sans';-inkscape-font-specification:'DejaVu Sans';text-align:start;letter-spacing:0px;word-spacing:0px;text-anchor:start;fill:#000000;fill-opacity:1;stroke:none;stroke-width:0.26458332"
           id="path2341"
           inkscape:connector-curvature="0" />
        <path
           d="m 119.78239,137.99744 v 0.13953 h -1.31154 q 0.0186,0.29455 0.17673,0.44958 0.15968,0.15348 0.44338,0.15348 0.16433,0 0.31781,-0.0403 0.15503,-0.0403 0.30696,-0.12093 v 0.26975 q -0.15348,0.0651 -0.31471,0.0992 -0.16123,0.0341 -0.32711,0.0341 -0.41548,0 -0.65887,-0.24185 -0.24185,-0.24184 -0.24185,-0.65422 0,-0.42633 0.22944,-0.67593 0.231,-0.25115 0.62167,-0.25115 0.35037,0 0.55346,0.22635 0.20463,0.22479 0.20463,0.61236 z m -0.28525,-0.0837 q -0.003,-0.2341 -0.13177,-0.37362 -0.12713,-0.13953 -0.33797,-0.13953 -0.23874,0 -0.38292,0.13488 -0.14263,0.13487 -0.16433,0.37982 z"
           style="font-style:normal;font-variant:normal;font-weight:normal;font-stretch:normal;font-size:medium;line-height:1.10000002;font-family:'DejaVu Sans';-inkscape-font-specification:'DejaVu Sans';text-align:start;letter-spacing:0px;word-spacing:0px;text-anchor:start;fill:#000000;fill-opacity:1;stroke:none;stroke-width:0.26458332"
           id="path2343"
           inkscape:connector-curvature="0" />
        <path
           d="m 121.35749,137.25175 v 0.26975 q -0.12092,-0.062 -0.25115,-0.093 -0.13022,-0.031 -0.26975,-0.031 -0.21239,0 -0.31936,0.0651 -0.10542,0.0651 -0.10542,0.19534 0,0.0992 0.076,0.15658 0.076,0.0558 0.30541,0.10697 l 0.0977,0.0217 q 0.30386,0.0651 0.43098,0.18449 0.12868,0.11782 0.12868,0.33021 0,0.24185 -0.19224,0.38292 -0.19068,0.14108 -0.52555,0.14108 -0.13952,0 -0.29145,-0.0279 -0.15038,-0.0264 -0.31781,-0.0806 v -0.29456 q 0.15813,0.0822 0.31161,0.12403 0.15348,0.0403 0.30385,0.0403 0.20154,0 0.31006,-0.0682 0.10852,-0.0698 0.10852,-0.19534 0,-0.11627 -0.0791,-0.17828 -0.0775,-0.062 -0.34262,-0.11937 l -0.0992,-0.0233 q -0.2651,-0.0558 -0.38293,-0.17053 -0.11782,-0.11627 -0.11782,-0.31781 0,-0.24495 0.17363,-0.37827 0.17364,-0.13333 0.493,-0.13333 0.15813,0 0.29765,0.0233 0.13953,0.0232 0.25735,0.0698 z"
           style="font-style:normal;font-variant:normal;font-weight:normal;font-stretch:normal;font-size:medium;line-height:1.10000002;font-family:'DejaVu Sans';-inkscape-font-specification:'DejaVu Sans';text-align:start;letter-spacing:0px;word-spacing:0px;text-anchor:start;fill:#000000;fill-opacity:1;stroke:none;stroke-width:0.26458332"
           id="path2345"
           inkscape:connector-curvature="0" />
        <path
           d="m 123.19924,136.7076 v 0.49299 h 0.58756 v 0.22169 h -0.58756 v 0.94258 q 0,0.21239 0.0574,0.27285 0.0589,0.0605 0.2372,0.0605 h 0.293 v 0.23874 h -0.293 q -0.33022,0 -0.45579,-0.12247 -0.12557,-0.12403 -0.12557,-0.44959 v -0.94258 h -0.20929 v -0.22169 h 0.20929 v -0.49299 z"
           style="font-style:normal;font-variant:normal;font-weight:normal;font-stretch:normal;font-size:medium;line-height:1.10000002;font-family:'DejaVu Sans';-inkscape-font-specification:'DejaVu Sans';text-align:start;letter-spacing:0px;word-spacing:0px;text-anchor:start;fill:#000000;fill-opacity:1;stroke:none;stroke-width:0.26458332"
           id="path2347"
           inkscape:connector-curvature="0" />
        <path
           d="m 125.60684,137.88892 v 1.048 h -0.28525 v -1.0387 q 0,-0.24649 -0.0961,-0.36897 -0.0961,-0.12247 -0.28835,-0.12247 -0.231,0 -0.36432,0.14728 -0.13333,0.14728 -0.13333,0.40152 v 0.98134 h -0.2868 v -2.41226 h 0.2868 v 0.94568 q 0.10232,-0.15658 0.2403,-0.23409 0.13953,-0.0775 0.32091,-0.0775 0.29921,0 0.45269,0.18604 0.15347,0.18448 0.15347,0.54415 z"
           style="font-style:normal;font-variant:normal;font-weight:normal;font-stretch:normal;font-size:medium;line-height:1.10000002;font-family:'DejaVu Sans';-inkscape-font-specification:'DejaVu Sans';text-align:start;letter-spacing:0px;word-spacing:0px;text-anchor:start;fill:#000000;fill-opacity:1;stroke:none;stroke-width:0.26458332"
           id="path2349"
           inkscape:connector-curvature="0" />
        <path
           d="m 127.66408,137.99744 v 0.13953 h -1.31154 q 0.0186,0.29455 0.17673,0.44958 0.15968,0.15348 0.44338,0.15348 0.16433,0 0.31781,-0.0403 0.15503,-0.0403 0.30696,-0.12093 v 0.26975 q -0.15348,0.0651 -0.31471,0.0992 -0.16123,0.0341 -0.32711,0.0341 -0.41548,0 -0.65888,-0.24185 -0.24184,-0.24184 -0.24184,-0.65422 0,-0.42633 0.22944,-0.67593 0.231,-0.25115 0.62167,-0.25115 0.35037,0 0.55345,0.22635 0.20464,0.22479 0.20464,0.61236 z m -0.28525,-0.0837 q -0.003,-0.2341 -0.13178,-0.37362 -0.12712,-0.13953 -0.33796,-0.13953 -0.23874,0 -0.38292,0.13488 -0.14263,0.13487 -0.16433,0.37982 z"
           style="font-style:normal;font-variant:normal;font-weight:normal;font-stretch:normal;font-size:medium;line-height:1.10000002;font-family:'DejaVu Sans';-inkscape-font-specification:'DejaVu Sans';text-align:start;letter-spacing:0px;word-spacing:0px;text-anchor:start;fill:#000000;fill-opacity:1;stroke:none;stroke-width:0.26458332"
           id="path2351"
           inkscape:connector-curvature="0" />
        <path
           d="m 129.81589,137.40058 q -0.22944,0 -0.36277,0.17983 -0.13332,0.17829 -0.13332,0.4899 0,0.31161 0.13177,0.49144 0.13333,0.17828 0.36432,0.17828 0.22789,0 0.36122,-0.17983 0.13332,-0.17984 0.13332,-0.48989 0,-0.30851 -0.13332,-0.48835 -0.13333,-0.18138 -0.36122,-0.18138 z m 0,-0.24185 q 0.37207,0 0.58446,0.24185 0.21239,0.24185 0.21239,0.66973 0,0.42633 -0.21239,0.66972 -0.21239,0.24185 -0.58446,0.24185 -0.37362,0 -0.58601,-0.24185 -0.21084,-0.24339 -0.21084,-0.66972 0,-0.42788 0.21084,-0.66973 0.21239,-0.24185 0.58601,-0.24185 z"
           style="font-style:normal;font-variant:normal;font-weight:normal;font-stretch:normal;font-size:medium;line-height:1.10000002;font-family:'DejaVu Sans';-inkscape-font-specification:'DejaVu Sans';text-align:start;letter-spacing:0px;word-spacing:0px;text-anchor:start;fill:#000000;fill-opacity:1;stroke:none;stroke-width:0.26458332"
           id="path2353"
           inkscape:connector-curvature="0" />
        <path
           d="m 132.09017,137.46724 q -0.0481,-0.0279 -0.10542,-0.0403 -0.0558,-0.0139 -0.12402,-0.0139 -0.24185,0 -0.37207,0.15813 -0.12868,0.15658 -0.12868,0.45114 v 0.91467 h -0.2868 v -1.73633 h 0.2868 v 0.26975 q 0.0899,-0.15813 0.2341,-0.23409 0.14417,-0.0775 0.35036,-0.0775 0.0295,0 0.0651,0.005 0.0357,0.003 0.0791,0.0109 z"
           style="font-style:normal;font-variant:normal;font-weight:normal;font-stretch:normal;font-size:medium;line-height:1.10000002;font-family:'DejaVu Sans';-inkscape-font-specification:'DejaVu Sans';text-align:start;letter-spacing:0px;word-spacing:0px;text-anchor:start;fill:#000000;fill-opacity:1;stroke:none;stroke-width:0.26458332"
           id="path2355"
           inkscape:connector-curvature="0" />
        <path
           d="m 133.47923,137.46414 v -0.93948 h 0.28526 v 2.41226 h -0.28526 v -0.26045 q -0.0899,0.15503 -0.22789,0.23099 -0.13643,0.0744 -0.32866,0.0744 -0.31471,0 -0.51315,-0.25115 -0.19689,-0.25115 -0.19689,-0.66042 0,-0.40928 0.19689,-0.66043 0.19844,-0.25115 0.51315,-0.25115 0.19223,0 0.32866,0.076 0.13798,0.0744 0.22789,0.22944 z m -0.97203,0.60617 q 0,0.31471 0.12867,0.49454 0.13023,0.17828 0.35657,0.17828 0.22634,0 0.35657,-0.17828 0.13022,-0.17983 0.13022,-0.49454 0,-0.31471 -0.13022,-0.493 -0.13023,-0.17983 -0.35657,-0.17983 -0.22634,0 -0.35657,0.17983 -0.12867,0.17829 -0.12867,0.493 z"
           style="font-style:normal;font-variant:normal;font-weight:normal;font-stretch:normal;font-size:medium;line-height:1.10000002;font-family:'DejaVu Sans';-inkscape-font-specification:'DejaVu Sans';text-align:start;letter-spacing:0px;word-spacing:0px;text-anchor:start;fill:#000000;fill-opacity:1;stroke:none;stroke-width:0.26458332"
           id="path2357"
           inkscape:connector-curvature="0" />
        <path
           d="m 135.83723,137.99744 v 0.13953 h -1.31155 q 0.0186,0.29455 0.17673,0.44958 0.15968,0.15348 0.44339,0.15348 0.16433,0 0.31781,-0.0403 0.15503,-0.0403 0.30696,-0.12093 v 0.26975 q -0.15348,0.0651 -0.31471,0.0992 -0.16123,0.0341 -0.32712,0.0341 -0.41547,0 -0.65887,-0.24185 -0.24185,-0.24184 -0.24185,-0.65422 0,-0.42633 0.22945,-0.67593 0.23099,-0.25115 0.62167,-0.25115 0.35036,0 0.55345,0.22635 0.20464,0.22479 0.20464,0.61236 z m -0.28526,-0.0837 q -0.003,-0.2341 -0.13177,-0.37362 -0.12712,-0.13953 -0.33796,-0.13953 -0.23875,0 -0.38293,0.13488 -0.14262,0.13487 -0.16433,0.37982 z"
           style="font-style:normal;font-variant:normal;font-weight:normal;font-stretch:normal;font-size:medium;line-height:1.10000002;font-family:'DejaVu Sans';-inkscape-font-specification:'DejaVu Sans';text-align:start;letter-spacing:0px;word-spacing:0px;text-anchor:start;fill:#000000;fill-opacity:1;stroke:none;stroke-width:0.26458332"
           id="path2359"
           inkscape:connector-curvature="0" />
        <path
           d="m 137.31156,137.46724 q -0.0481,-0.0279 -0.10542,-0.0403 -0.0558,-0.0139 -0.12403,-0.0139 -0.24184,0 -0.37207,0.15813 -0.12867,0.15658 -0.12867,0.45114 v 0.91467 h -0.28681 v -1.73633 h 0.28681 v 0.26975 q 0.0899,-0.15813 0.23409,-0.23409 0.14418,-0.0775 0.35037,-0.0775 0.0295,0 0.0651,0.005 0.0357,0.003 0.0791,0.0109 z"
           style="font-style:normal;font-variant:normal;font-weight:normal;font-stretch:normal;font-size:medium;line-height:1.10000002;font-family:'DejaVu Sans';-inkscape-font-specification:'DejaVu Sans';text-align:start;letter-spacing:0px;word-spacing:0px;text-anchor:start;fill:#000000;fill-opacity:1;stroke:none;stroke-width:0.26458332"
           id="path2361"
           inkscape:connector-curvature="0" />
        <path
           d="m 147.78836,160.61604 v 0.26975 q -0.12092,-0.062 -0.25114,-0.093 -0.13023,-0.031 -0.26975,-0.031 -0.21239,0 -0.31937,0.0651 -0.10542,0.0651 -0.10542,0.19534 0,0.0992 0.076,0.15658 0.076,0.0558 0.30541,0.10697 l 0.0977,0.0217 q 0.30385,0.0651 0.43098,0.18449 0.12867,0.11782 0.12867,0.33021 0,0.24184 -0.19224,0.38292 -0.19068,0.14108 -0.52554,0.14108 -0.13953,0 -0.29146,-0.0279 -0.15038,-0.0264 -0.31781,-0.0806 v -0.29456 q 0.15813,0.0822 0.31161,0.12402 0.15348,0.0403 0.30386,0.0403 0.20153,0 0.31006,-0.0682 0.10852,-0.0698 0.10852,-0.19534 0,-0.11627 -0.0791,-0.17828 -0.0775,-0.062 -0.34261,-0.11937 l -0.0992,-0.0233 q -0.2651,-0.0558 -0.38292,-0.17053 -0.11783,-0.11627 -0.11783,-0.31781 0,-0.24495 0.17364,-0.37827 0.17363,-0.13333 0.49299,-0.13333 0.15813,0 0.29765,0.0233 0.13953,0.0232 0.25735,0.0698 z"
           style="font-style:normal;font-variant:normal;font-weight:normal;font-stretch:normal;font-size:medium;line-height:1.10000002;font-family:'DejaVu Sans';-inkscape-font-specification:'DejaVu Sans';text-align:start;letter-spacing:0px;word-spacing:0px;text-anchor:start;fill:#000000;fill-opacity:1;stroke:none;stroke-width:0.26458332"
           id="path2271"
           inkscape:connector-curvature="0" />
        <path
           d="m 149.00999,160.76487 q -0.22944,0 -0.36276,0.17983 -0.13333,0.17829 -0.13333,0.48989 0,0.31161 0.13178,0.49145 0.13332,0.17828 0.36431,0.17828 0.2279,0 0.36122,-0.17983 0.13333,-0.17984 0.13333,-0.4899 0,-0.3085 -0.13333,-0.48834 -0.13332,-0.18138 -0.36122,-0.18138 z m 0,-0.24185 q 0.37207,0 0.58446,0.24185 0.2124,0.24184 0.2124,0.66972 0,0.42634 -0.2124,0.66973 -0.21239,0.24185 -0.58446,0.24185 -0.37362,0 -0.58601,-0.24185 -0.21084,-0.24339 -0.21084,-0.66973 0,-0.42788 0.21084,-0.66972 0.21239,-0.24185 0.58601,-0.24185 z"
           style="font-style:normal;font-variant:normal;font-weight:normal;font-stretch:normal;font-size:medium;line-height:1.10000002;font-family:'DejaVu Sans';-inkscape-font-specification:'DejaVu Sans';text-align:start;letter-spacing:0px;word-spacing:0px;text-anchor:start;fill:#000000;fill-opacity:1;stroke:none;stroke-width:0.26458332"
           id="path2273"
           inkscape:connector-curvature="0" />
        <path
           d="m 150.27813,159.88895 h 0.28526 v 2.41226 h -0.28526 z"
           style="font-style:normal;font-variant:normal;font-weight:normal;font-stretch:normal;font-size:medium;line-height:1.10000002;font-family:'DejaVu Sans';-inkscape-font-specification:'DejaVu Sans';text-align:start;letter-spacing:0px;word-spacing:0px;text-anchor:start;fill:#000000;fill-opacity:1;stroke:none;stroke-width:0.26458332"
           id="path2275"
           inkscape:connector-curvature="0" />
        <path
           d="m 152.30127,160.82843 v -0.93948 h 0.28525 v 2.41226 h -0.28525 v -0.26045 q -0.0899,0.15503 -0.2279,0.23099 -0.13642,0.0744 -0.32866,0.0744 -0.31471,0 -0.51315,-0.25115 -0.19688,-0.25115 -0.19688,-0.66043 0,-0.40927 0.19688,-0.66042 0.19844,-0.25115 0.51315,-0.25115 0.19224,0 0.32866,0.076 0.13798,0.0744 0.2279,0.22944 z m -0.97204,0.60616 q 0,0.31471 0.12868,0.49455 0.13022,0.17828 0.35656,0.17828 0.22635,0 0.35657,-0.17828 0.13023,-0.17984 0.13023,-0.49455 0,-0.3147 -0.13023,-0.49299 -0.13022,-0.17983 -0.35657,-0.17983 -0.22634,0 -0.35656,0.17983 -0.12868,0.17829 -0.12868,0.49299 z"
           style="font-style:normal;font-variant:normal;font-weight:normal;font-stretch:normal;font-size:medium;line-height:1.10000002;font-family:'DejaVu Sans';-inkscape-font-specification:'DejaVu Sans';text-align:start;letter-spacing:0px;word-spacing:0px;text-anchor:start;fill:#000000;fill-opacity:1;stroke:none;stroke-width:0.26458332"
           id="path2277"
           inkscape:connector-curvature="0" />
        <path
           d="m 153.17408,160.56488 h 0.28526 v 1.73633 h -0.28526 z m 0,-0.67593 h 0.28526 v 0.36122 h -0.28526 z"
           style="font-style:normal;font-variant:normal;font-weight:normal;font-stretch:normal;font-size:medium;line-height:1.10000002;font-family:'DejaVu Sans';-inkscape-font-specification:'DejaVu Sans';text-align:start;letter-spacing:0px;word-spacing:0px;text-anchor:start;fill:#000000;fill-opacity:1;stroke:none;stroke-width:0.26458332"
           id="path2279"
           inkscape:connector-curvature="0" />
        <path
           d="m 155.53983,161.36173 v 0.13953 h -1.31155 q 0.0186,0.29455 0.17673,0.44958 0.15968,0.15348 0.44339,0.15348 0.16433,0 0.31781,-0.0403 0.15503,-0.0403 0.30696,-0.12092 v 0.26975 q -0.15348,0.0651 -0.31471,0.0992 -0.16123,0.0341 -0.32712,0.0341 -0.41547,0 -0.65887,-0.24185 -0.24185,-0.24184 -0.24185,-0.65422 0,-0.42633 0.22945,-0.67593 0.23099,-0.25115 0.62167,-0.25115 0.35036,0 0.55345,0.22635 0.20464,0.22479 0.20464,0.61236 z m -0.28526,-0.0837 q -0.003,-0.2341 -0.13177,-0.37363 -0.12712,-0.13952 -0.33796,-0.13952 -0.23875,0 -0.38293,0.13487 -0.14262,0.13488 -0.16433,0.37983 z"
           style="font-style:normal;font-variant:normal;font-weight:normal;font-stretch:normal;font-size:medium;line-height:1.10000002;font-family:'DejaVu Sans';-inkscape-font-specification:'DejaVu Sans';text-align:start;letter-spacing:0px;word-spacing:0px;text-anchor:start;fill:#000000;fill-opacity:1;stroke:none;stroke-width:0.26458332"
           id="path2281"
           inkscape:connector-curvature="0" />
        <path
           d="m 157.01416,160.83153 q -0.0481,-0.0279 -0.10542,-0.0403 -0.0558,-0.014 -0.12403,-0.014 -0.24184,0 -0.37207,0.15813 -0.12867,0.15658 -0.12867,0.45114 v 0.91467 h -0.2868 v -1.73633 h 0.2868 v 0.26975 q 0.0899,-0.15813 0.23409,-0.23409 0.14418,-0.0775 0.35037,-0.0775 0.0295,0 0.0651,0.005 0.0357,0.003 0.0791,0.0109 z"
           style="font-style:normal;font-variant:normal;font-weight:normal;font-stretch:normal;font-size:medium;line-height:1.10000002;font-family:'DejaVu Sans';-inkscape-font-specification:'DejaVu Sans';text-align:start;letter-spacing:0px;word-spacing:0px;text-anchor:start;fill:#000000;fill-opacity:1;stroke:none;stroke-width:0.26458332"
           id="path2283"
           inkscape:connector-curvature="0" />
        <path
           d="m 158.42337,160.61604 v 0.26975 q -0.12092,-0.062 -0.25114,-0.093 -0.13023,-0.031 -0.26976,-0.031 -0.21239,0 -0.31936,0.0651 -0.10542,0.0651 -0.10542,0.19534 0,0.0992 0.076,0.15658 0.076,0.0558 0.30541,0.10697 l 0.0977,0.0217 q 0.30385,0.0651 0.43098,0.18449 0.12867,0.11782 0.12867,0.33021 0,0.24184 -0.19224,0.38292 -0.19068,0.14108 -0.52554,0.14108 -0.13953,0 -0.29146,-0.0279 -0.15038,-0.0264 -0.31781,-0.0806 v -0.29456 q 0.15813,0.0822 0.31161,0.12402 0.15348,0.0403 0.30386,0.0403 0.20153,0 0.31006,-0.0682 0.10852,-0.0698 0.10852,-0.19534 0,-0.11627 -0.0791,-0.17828 -0.0775,-0.062 -0.34261,-0.11937 l -0.0992,-0.0233 q -0.2651,-0.0558 -0.38293,-0.17053 -0.11782,-0.11627 -0.11782,-0.31781 0,-0.24495 0.17364,-0.37827 0.17363,-0.13333 0.49299,-0.13333 0.15813,0 0.29765,0.0233 0.13953,0.0232 0.25735,0.0698 z"
           style="font-style:normal;font-variant:normal;font-weight:normal;font-stretch:normal;font-size:medium;line-height:1.10000002;font-family:'DejaVu Sans';-inkscape-font-specification:'DejaVu Sans';text-align:start;letter-spacing:0px;word-spacing:0px;text-anchor:start;fill:#000000;fill-opacity:1;stroke:none;stroke-width:0.26458332"
           id="path2285"
           inkscape:connector-curvature="0" />
        <path
           d="m 161.08988,160.61604 v 0.26975 q -0.12093,-0.062 -0.25115,-0.093 -0.13022,-0.031 -0.26975,-0.031 -0.21239,0 -0.31936,0.0651 -0.10542,0.0651 -0.10542,0.19534 0,0.0992 0.076,0.15658 0.076,0.0558 0.30541,0.10697 l 0.0977,0.0217 q 0.30386,0.0651 0.43098,0.18449 0.12867,0.11782 0.12867,0.33021 0,0.24184 -0.19223,0.38292 -0.19069,0.14108 -0.52555,0.14108 -0.13953,0 -0.29146,-0.0279 -0.15037,-0.0264 -0.31781,-0.0806 v -0.29456 q 0.15813,0.0822 0.31161,0.12402 0.15348,0.0403 0.30386,0.0403 0.20154,0 0.31006,-0.0682 0.10852,-0.0698 0.10852,-0.19534 0,-0.11627 -0.0791,-0.17828 -0.0775,-0.062 -0.34261,-0.11937 l -0.0992,-0.0233 q -0.2651,-0.0558 -0.38292,-0.17053 -0.11782,-0.11627 -0.11782,-0.31781 0,-0.24495 0.17363,-0.37827 0.17363,-0.13333 0.49299,-0.13333 0.15813,0 0.29766,0.0233 0.13953,0.0232 0.25735,0.0698 z"
           style="font-style:normal;font-variant:normal;font-weight:normal;font-stretch:normal;font-size:medium;line-height:1.10000002;font-family:'DejaVu Sans';-inkscape-font-specification:'DejaVu Sans';text-align:start;letter-spacing:0px;word-spacing:0px;text-anchor:start;fill:#000000;fill-opacity:1;stroke:none;stroke-width:0.26458332"
           id="path2287"
           inkscape:connector-curvature="0" />
        <path
           d="m 163.082,161.25321 v 1.048 h -0.28525 v -1.0387 q 0,-0.24649 -0.0961,-0.36897 -0.0961,-0.12247 -0.28835,-0.12247 -0.231,0 -0.36432,0.14728 -0.13333,0.14728 -0.13333,0.40152 v 0.98134 h -0.2868 v -2.41226 h 0.2868 v 0.94568 q 0.10232,-0.15658 0.2403,-0.23409 0.13952,-0.0775 0.32091,-0.0775 0.2992,0 0.45268,0.18604 0.15348,0.18448 0.15348,0.54415 z"
           style="font-style:normal;font-variant:normal;font-weight:normal;font-stretch:normal;font-size:medium;line-height:1.10000002;font-family:'DejaVu Sans';-inkscape-font-specification:'DejaVu Sans';text-align:start;letter-spacing:0px;word-spacing:0px;text-anchor:start;fill:#000000;fill-opacity:1;stroke:none;stroke-width:0.26458332"
           id="path2289"
           inkscape:connector-curvature="0" />
        <path
           d="m 164.32689,160.76487 q -0.22945,0 -0.36277,0.17983 -0.13333,0.17829 -0.13333,0.48989 0,0.31161 0.13178,0.49145 0.13332,0.17828 0.36432,0.17828 0.22789,0 0.36122,-0.17983 0.13332,-0.17984 0.13332,-0.4899 0,-0.3085 -0.13332,-0.48834 -0.13333,-0.18138 -0.36122,-0.18138 z m 0,-0.24185 q 0.37207,0 0.58446,0.24185 0.21239,0.24184 0.21239,0.66972 0,0.42634 -0.21239,0.66973 -0.21239,0.24185 -0.58446,0.24185 -0.37362,0 -0.58601,-0.24185 -0.21084,-0.24339 -0.21084,-0.66973 0,-0.42788 0.21084,-0.66972 0.21239,-0.24185 0.58601,-0.24185 z"
           style="font-style:normal;font-variant:normal;font-weight:normal;font-stretch:normal;font-size:medium;line-height:1.10000002;font-family:'DejaVu Sans';-inkscape-font-specification:'DejaVu Sans';text-align:start;letter-spacing:0px;word-spacing:0px;text-anchor:start;fill:#000000;fill-opacity:1;stroke:none;stroke-width:0.26458332"
           id="path2291"
           inkscape:connector-curvature="0" />
        <path
           d="m 166.26786,160.76487 q -0.22945,0 -0.36277,0.17983 -0.13333,0.17829 -0.13333,0.48989 0,0.31161 0.13178,0.49145 0.13332,0.17828 0.36432,0.17828 0.22789,0 0.36121,-0.17983 0.13333,-0.17984 0.13333,-0.4899 0,-0.3085 -0.13333,-0.48834 -0.13332,-0.18138 -0.36121,-0.18138 z m 0,-0.24185 q 0.37207,0 0.58446,0.24185 0.21239,0.24184 0.21239,0.66972 0,0.42634 -0.21239,0.66973 -0.21239,0.24185 -0.58446,0.24185 -0.37362,0 -0.58601,-0.24185 -0.21084,-0.24339 -0.21084,-0.66973 0,-0.42788 0.21084,-0.66972 0.21239,-0.24185 0.58601,-0.24185 z"
           style="font-style:normal;font-variant:normal;font-weight:normal;font-stretch:normal;font-size:medium;line-height:1.10000002;font-family:'DejaVu Sans';-inkscape-font-specification:'DejaVu Sans';text-align:start;letter-spacing:0px;word-spacing:0px;text-anchor:start;fill:#000000;fill-opacity:1;stroke:none;stroke-width:0.26458332"
           id="path2293"
           inkscape:connector-curvature="0" />
        <path
           d="m 167.81815,160.07189 v 0.49299 h 0.58756 v 0.22169 h -0.58756 v 0.94258 q 0,0.21239 0.0574,0.27285 0.0589,0.0605 0.23719,0.0605 h 0.29301 v 0.23875 h -0.29301 q -0.33021,0 -0.45578,-0.12247 -0.12558,-0.12403 -0.12558,-0.44959 v -0.94258 h -0.20929 v -0.22169 h 0.20929 v -0.49299 z"
           style="font-style:normal;font-variant:normal;font-weight:normal;font-stretch:normal;font-size:medium;line-height:1.10000002;font-family:'DejaVu Sans';-inkscape-font-specification:'DejaVu Sans';text-align:start;letter-spacing:0px;word-spacing:0px;text-anchor:start;fill:#000000;fill-opacity:1;stroke:none;stroke-width:0.26458332"
           id="path2295"
           inkscape:connector-curvature="0" />
        <path
           d="m 100.87348,184.78957 v 0.92087 h -0.28681 v -2.39675 h 0.28681 v 0.26355 q 0.0899,-0.15503 0.22634,-0.22944 0.13797,-0.076 0.32866,-0.076 0.31626,0 0.51315,0.25115 0.19843,0.25115 0.19843,0.66042 0,0.40928 -0.19843,0.66043 -0.19689,0.25115 -0.51315,0.25115 -0.19069,0 -0.32866,-0.0744 -0.13643,-0.076 -0.22634,-0.23099 z m 0.97048,-0.60617 q 0,-0.3147 -0.13023,-0.49299 -0.12867,-0.17983 -0.35501,-0.17983 -0.22635,0 -0.35657,0.17983 -0.12867,0.17829 -0.12867,0.49299 0,0.31471 0.12867,0.49455 0.13022,0.17828 0.35657,0.17828 0.22634,0 0.35501,-0.17828 0.13023,-0.17984 0.13023,-0.49455 z"
           style="font-style:normal;font-variant:normal;font-weight:normal;font-stretch:normal;font-size:medium;line-height:1.10000002;font-family:'DejaVu Sans';-inkscape-font-specification:'DejaVu Sans';text-align:start;letter-spacing:0px;word-spacing:0px;text-anchor:start;fill:#000000;fill-opacity:1;stroke:none;stroke-width:0.26458332"
           id="path2298"
           inkscape:connector-curvature="0" />
        <path
           d="m 103.61904,183.58034 q -0.0481,-0.0279 -0.10542,-0.0403 -0.0558,-0.0139 -0.12402,-0.0139 -0.24184,0 -0.37207,0.15813 -0.12867,0.15658 -0.12867,0.45114 v 0.91467 h -0.28681 v -1.73633 h 0.28681 v 0.26975 q 0.0899,-0.15813 0.23409,-0.23409 0.14418,-0.0775 0.35037,-0.0775 0.0294,0 0.0651,0.005 0.0357,0.003 0.0791,0.0109 z"
           style="font-style:normal;font-variant:normal;font-weight:normal;font-stretch:normal;font-size:medium;line-height:1.10000002;font-family:'DejaVu Sans';-inkscape-font-specification:'DejaVu Sans';text-align:start;letter-spacing:0px;word-spacing:0px;text-anchor:start;fill:#000000;fill-opacity:1;stroke:none;stroke-width:0.26458332"
           id="path2300"
           inkscape:connector-curvature="0" />
        <path
           d="m 103.92135,183.31369 h 0.28526 v 1.73633 h -0.28526 z m 0,-0.67593 h 0.28526 v 0.36122 h -0.28526 z"
           style="font-style:normal;font-variant:normal;font-weight:normal;font-stretch:normal;font-size:medium;line-height:1.10000002;font-family:'DejaVu Sans';-inkscape-font-specification:'DejaVu Sans';text-align:start;letter-spacing:0px;word-spacing:0px;text-anchor:start;fill:#000000;fill-opacity:1;stroke:none;stroke-width:0.26458332"
           id="path2302"
           inkscape:connector-curvature="0" />
        <path
           d="m 105.90883,183.36485 v 0.26975 q -0.12093,-0.062 -0.25115,-0.093 -0.13023,-0.031 -0.26975,-0.031 -0.21239,0 -0.31936,0.0651 -0.10542,0.0651 -0.10542,0.19534 0,0.0992 0.076,0.15658 0.076,0.0558 0.30541,0.10697 l 0.0977,0.0217 q 0.30386,0.0651 0.43098,0.18449 0.12867,0.11782 0.12867,0.33021 0,0.24184 -0.19223,0.38292 -0.19069,0.14108 -0.52555,0.14108 -0.13953,0 -0.29146,-0.0279 -0.15037,-0.0264 -0.31781,-0.0806 v -0.29456 q 0.15813,0.0822 0.31161,0.12402 0.15348,0.0403 0.30386,0.0403 0.20154,0 0.31006,-0.0682 0.10852,-0.0698 0.10852,-0.19534 0,-0.11627 -0.0791,-0.17828 -0.0775,-0.062 -0.34261,-0.11937 l -0.0992,-0.0233 q -0.2651,-0.0558 -0.38292,-0.17053 -0.11782,-0.11627 -0.11782,-0.31781 0,-0.24495 0.17363,-0.37827 0.17363,-0.13333 0.49299,-0.13333 0.15813,0 0.29766,0.0233 0.13952,0.0233 0.25735,0.0698 z"
           style="font-style:normal;font-variant:normal;font-weight:normal;font-stretch:normal;font-size:medium;line-height:1.10000002;font-family:'DejaVu Sans';-inkscape-font-specification:'DejaVu Sans';text-align:start;letter-spacing:0px;word-spacing:0px;text-anchor:start;fill:#000000;fill-opacity:1;stroke:none;stroke-width:0.26458332"
           id="path2304"
           inkscape:connector-curvature="0" />
        <path
           d="m 107.13046,183.51368 q -0.22945,0 -0.36277,0.17983 -0.13333,0.17829 -0.13333,0.48989 0,0.31161 0.13178,0.49145 0.13332,0.17828 0.36432,0.17828 0.22789,0 0.36122,-0.17983 0.13332,-0.17984 0.13332,-0.4899 0,-0.3085 -0.13332,-0.48834 -0.13333,-0.18138 -0.36122,-0.18138 z m 0,-0.24185 q 0.37207,0 0.58446,0.24185 0.21239,0.24184 0.21239,0.66972 0,0.42634 -0.21239,0.66973 -0.21239,0.24185 -0.58446,0.24185 -0.37362,0 -0.58601,-0.24185 -0.21084,-0.24339 -0.21084,-0.66973 0,-0.42788 0.21084,-0.66972 0.21239,-0.24185 0.58601,-0.24185 z"
           style="font-style:normal;font-variant:normal;font-weight:normal;font-stretch:normal;font-size:medium;line-height:1.10000002;font-family:'DejaVu Sans';-inkscape-font-specification:'DejaVu Sans';text-align:start;letter-spacing:0px;word-spacing:0px;text-anchor:start;fill:#000000;fill-opacity:1;stroke:none;stroke-width:0.26458332"
           id="path2306"
           inkscape:connector-curvature="0" />
        <path
           d="m 109.84192,184.00202 v 1.048 h -0.28525 v -1.0387 q 0,-0.24649 -0.0961,-0.36897 -0.0961,-0.12247 -0.28836,-0.12247 -0.23099,0 -0.36432,0.14728 -0.13332,0.14727 -0.13332,0.40152 v 0.98134 h -0.2868 v -1.73633 h 0.2868 v 0.26975 q 0.10232,-0.15658 0.2403,-0.23409 0.13952,-0.0775 0.32091,-0.0775 0.2992,0 0.45268,0.18604 0.15348,0.18448 0.15348,0.54415 z"
           style="font-style:normal;font-variant:normal;font-weight:normal;font-stretch:normal;font-size:medium;line-height:1.10000002;font-family:'DejaVu Sans';-inkscape-font-specification:'DejaVu Sans';text-align:start;letter-spacing:0px;word-spacing:0px;text-anchor:start;fill:#000000;fill-opacity:1;stroke:none;stroke-width:0.26458332"
           id="path2308"
           inkscape:connector-curvature="0" />
        <path
           d="m 111.89916,184.11054 v 0.13953 h -1.31155 q 0.0186,0.29455 0.17673,0.44958 0.15968,0.15348 0.44339,0.15348 0.16433,0 0.31781,-0.0403 0.15503,-0.0403 0.30696,-0.12092 v 0.26975 q -0.15348,0.0651 -0.31471,0.0992 -0.16123,0.0341 -0.32711,0.0341 -0.41548,0 -0.65888,-0.24185 -0.24185,-0.24184 -0.24185,-0.65422 0,-0.42633 0.22945,-0.67593 0.23099,-0.25115 0.62167,-0.25115 0.35036,0 0.55345,0.22635 0.20464,0.22479 0.20464,0.61236 z m -0.28525,-0.0837 q -0.003,-0.23409 -0.13178,-0.37362 -0.12712,-0.13952 -0.33796,-0.13952 -0.23875,0 -0.38293,0.13487 -0.14262,0.13488 -0.16433,0.37983 z"
           style="font-style:normal;font-variant:normal;font-weight:normal;font-stretch:normal;font-size:medium;line-height:1.10000002;font-family:'DejaVu Sans';-inkscape-font-specification:'DejaVu Sans';text-align:start;letter-spacing:0px;word-spacing:0px;text-anchor:start;fill:#000000;fill-opacity:1;stroke:none;stroke-width:0.26458332"
           id="path2310"
           inkscape:connector-curvature="0" />
        <path
           d="m 113.37349,183.58034 q -0.0481,-0.0279 -0.10542,-0.0403 -0.0558,-0.0139 -0.12403,-0.0139 -0.24184,0 -0.37207,0.15813 -0.12867,0.15658 -0.12867,0.45114 v 0.91467 h -0.2868 v -1.73633 h 0.2868 v 0.26975 q 0.0899,-0.15813 0.23409,-0.23409 0.14418,-0.0775 0.35037,-0.0775 0.0295,0 0.0651,0.005 0.0357,0.003 0.0791,0.0109 z"
           style="font-style:normal;font-variant:normal;font-weight:normal;font-stretch:normal;font-size:medium;line-height:1.10000002;font-family:'DejaVu Sans';-inkscape-font-specification:'DejaVu Sans';text-align:start;letter-spacing:0px;word-spacing:0px;text-anchor:start;fill:#000000;fill-opacity:1;stroke:none;stroke-width:0.26458332"
           id="path2312"
           inkscape:connector-curvature="0" />
        <path
           d="m 115.82915,183.57724 v -0.93948 h 0.28526 v 2.41226 h -0.28526 v -0.26045 q -0.0899,0.15503 -0.22789,0.23099 -0.13643,0.0744 -0.32866,0.0744 -0.31471,0 -0.51315,-0.25115 -0.19689,-0.25115 -0.19689,-0.66043 0,-0.40927 0.19689,-0.66042 0.19844,-0.25115 0.51315,-0.25115 0.19223,0 0.32866,0.076 0.13798,0.0744 0.22789,0.22944 z m -0.97203,0.60616 q 0,0.31471 0.12867,0.49455 0.13023,0.17828 0.35657,0.17828 0.22634,0 0.35657,-0.17828 0.13022,-0.17984 0.13022,-0.49455 0,-0.3147 -0.13022,-0.49299 -0.13023,-0.17983 -0.35657,-0.17983 -0.22634,0 -0.35657,0.17983 -0.12867,0.17829 -0.12867,0.49299 z"
           style="font-style:normal;font-variant:normal;font-weight:normal;font-stretch:normal;font-size:medium;line-height:1.10000002;font-family:'DejaVu Sans';-inkscape-font-specification:'DejaVu Sans';text-align:start;letter-spacing:0px;word-spacing:0px;text-anchor:start;fill:#000000;fill-opacity:1;stroke:none;stroke-width:0.26458332"
           id="path2314"
           inkscape:connector-curvature="0" />
        <path
           d="m 116.70197,183.31369 h 0.28525 v 1.73633 h -0.28525 z m 0,-0.67593 h 0.28525 v 0.36122 h -0.28525 z"
           style="font-style:normal;font-variant:normal;font-weight:normal;font-stretch:normal;font-size:medium;line-height:1.10000002;font-family:'DejaVu Sans';-inkscape-font-specification:'DejaVu Sans';text-align:start;letter-spacing:0px;word-spacing:0px;text-anchor:start;fill:#000000;fill-opacity:1;stroke:none;stroke-width:0.26458332"
           id="path2316"
           inkscape:connector-curvature="0" />
        <path
           d="m 119.06771,184.11054 v 0.13953 h -1.31154 q 0.0186,0.29455 0.17673,0.44958 0.15968,0.15348 0.44338,0.15348 0.16433,0 0.31781,-0.0403 0.15503,-0.0403 0.30696,-0.12092 v 0.26975 q -0.15348,0.0651 -0.31471,0.0992 -0.16123,0.0341 -0.32711,0.0341 -0.41548,0 -0.65887,-0.24185 -0.24185,-0.24184 -0.24185,-0.65422 0,-0.42633 0.22944,-0.67593 0.231,-0.25115 0.62167,-0.25115 0.35037,0 0.55346,0.22635 0.20463,0.22479 0.20463,0.61236 z m -0.28525,-0.0837 q -0.003,-0.23409 -0.13177,-0.37362 -0.12713,-0.13952 -0.33797,-0.13952 -0.23874,0 -0.38292,0.13487 -0.14263,0.13488 -0.16433,0.37983 z"
           style="font-style:normal;font-variant:normal;font-weight:normal;font-stretch:normal;font-size:medium;line-height:1.10000002;font-family:'DejaVu Sans';-inkscape-font-specification:'DejaVu Sans';text-align:start;letter-spacing:0px;word-spacing:0px;text-anchor:start;fill:#000000;fill-opacity:1;stroke:none;stroke-width:0.26458332"
           id="path2318"
           inkscape:connector-curvature="0" />
        <path
           d="m 120.64281,183.36485 v 0.26975 q -0.12092,-0.062 -0.25115,-0.093 -0.13022,-0.031 -0.26975,-0.031 -0.21239,0 -0.31936,0.0651 -0.10542,0.0651 -0.10542,0.19534 0,0.0992 0.076,0.15658 0.076,0.0558 0.30541,0.10697 l 0.0977,0.0217 q 0.30386,0.0651 0.43099,0.18449 0.12867,0.11782 0.12867,0.33021 0,0.24184 -0.19224,0.38292 -0.19068,0.14108 -0.52555,0.14108 -0.13952,0 -0.29145,-0.0279 -0.15038,-0.0264 -0.31781,-0.0806 v -0.29456 q 0.15813,0.0822 0.31161,0.12402 0.15348,0.0403 0.30386,0.0403 0.20153,0 0.31005,-0.0682 0.10852,-0.0698 0.10852,-0.19534 0,-0.11627 -0.0791,-0.17828 -0.0775,-0.062 -0.34262,-0.11937 l -0.0992,-0.0233 q -0.2651,-0.0558 -0.38293,-0.17053 -0.11782,-0.11627 -0.11782,-0.31781 0,-0.24495 0.17363,-0.37827 0.17364,-0.13333 0.493,-0.13333 0.15813,0 0.29765,0.0233 0.13953,0.0233 0.25735,0.0698 z"
           style="font-style:normal;font-variant:normal;font-weight:normal;font-stretch:normal;font-size:medium;line-height:1.10000002;font-family:'DejaVu Sans';-inkscape-font-specification:'DejaVu Sans';text-align:start;letter-spacing:0px;word-spacing:0px;text-anchor:start;fill:#000000;fill-opacity:1;stroke:none;stroke-width:0.26458332"
           id="path2320"
           inkscape:connector-curvature="0" />
        <path
           d="m 100.94323,114.14405 h 0.28526 v 1.76733 q 0,0.33177 -0.12713,0.4806 -0.12557,0.14882 -0.40617,0.14882 h -0.10852 v -0.24184 h 0.076 q 0.16278,0 0.22169,-0.076 0.0589,-0.0744 0.0589,-0.31161 z m 0,-0.67593 h 0.28526 v 0.36122 h -0.28526 z"
           style="font-style:normal;font-variant:normal;font-weight:normal;font-stretch:normal;font-size:medium;line-height:1.10000002;font-family:'DejaVu Sans';-inkscape-font-specification:'DejaVu Sans';text-align:start;letter-spacing:0px;word-spacing:0px;text-anchor:start;fill:#000000;fill-opacity:1;stroke:none;stroke-width:0.26458332"
           id="path2364"
           inkscape:connector-curvature="0" />
        <path
           d="m 101.79435,115.19515 v -1.0511 h 0.28525 v 1.04025 q 0,0.24649 0.0961,0.37052 0.0961,0.12247 0.28835,0.12247 0.231,0 0.36432,-0.14728 0.13488,-0.14728 0.13488,-0.40152 v -0.98444 h 0.28525 v 1.73633 h -0.28525 v -0.26665 q -0.10387,0.15813 -0.24185,0.23564 -0.13643,0.076 -0.31781,0.076 -0.29921,0 -0.45424,-0.18604 -0.15502,-0.18603 -0.15502,-0.54415 z m 0.71778,-1.09296 z"
           style="font-style:normal;font-variant:normal;font-weight:normal;font-stretch:normal;font-size:medium;line-height:1.10000002;font-family:'DejaVu Sans';-inkscape-font-specification:'DejaVu Sans';text-align:start;letter-spacing:0px;word-spacing:0px;text-anchor:start;fill:#000000;fill-opacity:1;stroke:none;stroke-width:0.26458332"
           id="path2366"
           inkscape:connector-curvature="0" />
        <path
           d="m 104.98175,114.4076 v -0.93948 h 0.28525 v 2.41226 h -0.28525 v -0.26045 q -0.0899,0.15503 -0.2279,0.23099 -0.13642,0.0744 -0.32866,0.0744 -0.31471,0 -0.51314,-0.25115 -0.19689,-0.25115 -0.19689,-0.66043 0,-0.40927 0.19689,-0.66042 0.19843,-0.25115 0.51314,-0.25115 0.19224,0 0.32866,0.076 0.13798,0.0744 0.2279,0.22944 z m -0.97204,0.60616 q 0,0.31471 0.12868,0.49455 0.13022,0.17828 0.35657,0.17828 0.22634,0 0.35656,-0.17828 0.13023,-0.17984 0.13023,-0.49455 0,-0.3147 -0.13023,-0.49299 -0.13022,-0.17983 -0.35656,-0.17983 -0.22635,0 -0.35657,0.17983 -0.12868,0.17829 -0.12868,0.49299 z"
           style="font-style:normal;font-variant:normal;font-weight:normal;font-stretch:normal;font-size:medium;line-height:1.10000002;font-family:'DejaVu Sans';-inkscape-font-specification:'DejaVu Sans';text-align:start;letter-spacing:0px;word-spacing:0px;text-anchor:start;fill:#000000;fill-opacity:1;stroke:none;stroke-width:0.26458332"
           id="path2368"
           inkscape:connector-curvature="0" />
        <path
           d="m 106.99713,114.99206 q 0,-0.31006 -0.12868,-0.48059 -0.12712,-0.17053 -0.35811,-0.17053 -0.22945,0 -0.35812,0.17053 -0.12713,0.17053 -0.12713,0.48059 0,0.30851 0.12713,0.47904 0.12867,0.17053 0.35812,0.17053 0.23099,0 0.35811,-0.17053 0.12868,-0.17053 0.12868,-0.47904 z m 0.28525,0.67283 q 0,0.44338 -0.19688,0.65887 -0.19689,0.21704 -0.60307,0.21704 -0.15038,0 -0.2837,-0.0233 -0.13333,-0.0217 -0.2589,-0.0682 v -0.27751 q 0.12557,0.0682 0.24805,0.10077 0.12247,0.0326 0.24959,0.0326 0.28061,0 0.42013,-0.14728 0.13953,-0.14573 0.13953,-0.44183 v -0.14108 q -0.0884,0.15348 -0.22634,0.22944 -0.13798,0.076 -0.33022,0.076 -0.31936,0 -0.51469,-0.2434 -0.19534,-0.24339 -0.19534,-0.64492 0,-0.40308 0.19534,-0.64647 0.19533,-0.2434 0.51469,-0.2434 0.19224,0 0.33022,0.076 0.13797,0.076 0.22634,0.22944 v -0.26355 h 0.28525 z"
           style="font-style:normal;font-variant:normal;font-weight:normal;font-stretch:normal;font-size:medium;line-height:1.10000002;font-family:'DejaVu Sans';-inkscape-font-specification:'DejaVu Sans';text-align:start;letter-spacing:0px;word-spacing:0px;text-anchor:start;fill:#000000;fill-opacity:1;stroke:none;stroke-width:0.26458332"
           id="path2370"
           inkscape:connector-curvature="0" />
        <path
           d="m 109.35512,114.9409 v 0.13953 h -1.31154 q 0.0186,0.29455 0.17673,0.44958 0.15968,0.15348 0.44338,0.15348 0.16433,0 0.31781,-0.0403 0.15503,-0.0403 0.30696,-0.12092 v 0.26975 q -0.15348,0.0651 -0.31471,0.0992 -0.16123,0.0341 -0.32711,0.0341 -0.41548,0 -0.65887,-0.24185 -0.24185,-0.24184 -0.24185,-0.65422 0,-0.42633 0.22944,-0.67593 0.231,-0.25115 0.62167,-0.25115 0.35037,0 0.55346,0.22635 0.20463,0.22479 0.20463,0.61236 z m -0.28525,-0.0837 q -0.003,-0.2341 -0.13177,-0.37363 -0.12713,-0.13952 -0.33797,-0.13952 -0.23874,0 -0.38292,0.13487 -0.14263,0.13488 -0.16433,0.37983 z"
           style="font-style:normal;font-variant:normal;font-weight:normal;font-stretch:normal;font-size:medium;line-height:1.10000002;font-family:'DejaVu Sans';-inkscape-font-specification:'DejaVu Sans';text-align:start;letter-spacing:0px;word-spacing:0px;text-anchor:start;fill:#000000;fill-opacity:1;stroke:none;stroke-width:0.26458332"
           id="path2372"
           inkscape:connector-curvature="0" />
        <path
           d="m 111.11006,115.61993 v 0.92087 h -0.28681 v -2.39675 h 0.28681 v 0.26355 q 0.0899,-0.15503 0.22634,-0.22944 0.13797,-0.076 0.32866,-0.076 0.31626,0 0.51315,0.25115 0.19843,0.25115 0.19843,0.66042 0,0.40928 -0.19843,0.66043 -0.19689,0.25115 -0.51315,0.25115 -0.19069,0 -0.32866,-0.0744 -0.13643,-0.076 -0.22634,-0.23099 z m 0.97048,-0.60617 q 0,-0.3147 -0.13023,-0.49299 -0.12867,-0.17983 -0.35501,-0.17983 -0.22635,0 -0.35657,0.17983 -0.12867,0.17829 -0.12867,0.49299 0,0.31471 0.12867,0.49455 0.13022,0.17828 0.35657,0.17828 0.22634,0 0.35501,-0.17828 0.13023,-0.17984 0.13023,-0.49455 z"
           style="font-style:normal;font-variant:normal;font-weight:normal;font-stretch:normal;font-size:medium;line-height:1.10000002;font-family:'DejaVu Sans';-inkscape-font-specification:'DejaVu Sans';text-align:start;letter-spacing:0px;word-spacing:0px;text-anchor:start;fill:#000000;fill-opacity:1;stroke:none;stroke-width:0.26458332"
           id="path2374"
           inkscape:connector-curvature="0" />
        <path
           d="m 113.85562,114.4107 q -0.0481,-0.0279 -0.10542,-0.0403 -0.0558,-0.0139 -0.12402,-0.0139 -0.24184,0 -0.37207,0.15813 -0.12867,0.15658 -0.12867,0.45114 v 0.91467 h -0.28681 v -1.73633 h 0.28681 v 0.26975 q 0.0899,-0.15813 0.23409,-0.23409 0.14418,-0.0775 0.35037,-0.0775 0.0294,0 0.0651,0.005 0.0357,0.003 0.0791,0.0109 z"
           style="font-style:normal;font-variant:normal;font-weight:normal;font-stretch:normal;font-size:medium;line-height:1.10000002;font-family:'DejaVu Sans';-inkscape-font-specification:'DejaVu Sans';text-align:start;letter-spacing:0px;word-spacing:0px;text-anchor:start;fill:#000000;fill-opacity:1;stroke:none;stroke-width:0.26458332"
           id="path2376"
           inkscape:connector-curvature="0" />
        <path
           d="m 114.76255,114.34404 q -0.22945,0 -0.36277,0.17983 -0.13333,0.17829 -0.13333,0.48989 0,0.31161 0.13178,0.49145 0.13332,0.17828 0.36432,0.17828 0.22789,0 0.36121,-0.17983 0.13333,-0.17984 0.13333,-0.4899 0,-0.3085 -0.13333,-0.48834 -0.13332,-0.18138 -0.36121,-0.18138 z m 0,-0.24185 q 0.37207,0 0.58446,0.24185 0.21239,0.24184 0.21239,0.66972 0,0.42634 -0.21239,0.66973 -0.21239,0.24185 -0.58446,0.24185 -0.37362,0 -0.58601,-0.24185 -0.21084,-0.24339 -0.21084,-0.66973 0,-0.42788 0.21084,-0.66972 0.21239,-0.24185 0.58601,-0.24185 z"
           style="font-style:normal;font-variant:normal;font-weight:normal;font-stretch:normal;font-size:medium;line-height:1.10000002;font-family:'DejaVu Sans';-inkscape-font-specification:'DejaVu Sans';text-align:start;letter-spacing:0px;word-spacing:0px;text-anchor:start;fill:#000000;fill-opacity:1;stroke:none;stroke-width:0.26458332"
           id="path2378"
           inkscape:connector-curvature="0" />
        <path
           d="m 116.00123,115.19515 v -1.0511 h 0.28525 v 1.04025 q 0,0.24649 0.0961,0.37052 0.0961,0.12247 0.28836,0.12247 0.23099,0 0.36432,-0.14728 0.13487,-0.14728 0.13487,-0.40152 v -0.98444 h 0.28525 v 1.73633 h -0.28525 v -0.26665 q -0.10387,0.15813 -0.24185,0.23564 -0.13642,0.076 -0.31781,0.076 -0.2992,0 -0.45423,-0.18604 -0.15503,-0.18603 -0.15503,-0.54415 z m 0.71779,-1.09296 z"
           style="font-style:normal;font-variant:normal;font-weight:normal;font-stretch:normal;font-size:medium;line-height:1.10000002;font-family:'DejaVu Sans';-inkscape-font-specification:'DejaVu Sans';text-align:start;letter-spacing:0px;word-spacing:0px;text-anchor:start;fill:#000000;fill-opacity:1;stroke:none;stroke-width:0.26458332"
           id="path2380"
           inkscape:connector-curvature="0" />
        <path
           d="m 119.48939,114.83238 v 1.048 h -0.28525 v -1.0387 q 0,-0.24649 -0.0961,-0.36897 -0.0961,-0.12247 -0.28836,-0.12247 -0.23099,0 -0.36432,0.14728 -0.13332,0.14728 -0.13332,0.40152 v 0.98134 h -0.28681 v -1.73633 h 0.28681 v 0.26975 q 0.10232,-0.15658 0.24029,-0.23409 0.13953,-0.0775 0.32092,-0.0775 0.2992,0 0.45268,0.18604 0.15348,0.18448 0.15348,0.54415 z"
           style="font-style:normal;font-variant:normal;font-weight:normal;font-stretch:normal;font-size:medium;line-height:1.10000002;font-family:'DejaVu Sans';-inkscape-font-specification:'DejaVu Sans';text-align:start;letter-spacing:0px;word-spacing:0px;text-anchor:start;fill:#000000;fill-opacity:1;stroke:none;stroke-width:0.26458332"
           id="path2382"
           inkscape:connector-curvature="0" />
        <path
           d="m 121.31098,114.21071 v 0.26665 q -0.12092,-0.0667 -0.24339,-0.0992 -0.12092,-0.0341 -0.24495,-0.0341 -0.2775,0 -0.43098,0.17673 -0.15348,0.17518 -0.15348,0.49299 0,0.31782 0.15348,0.49455 0.15348,0.17518 0.43098,0.17518 0.12403,0 0.24495,-0.0326 0.12247,-0.0341 0.24339,-0.10077 v 0.26355 q -0.11937,0.0558 -0.24804,0.0837 -0.12713,0.0279 -0.2713,0.0279 -0.39223,0 -0.62322,-0.2465 -0.231,-0.2465 -0.231,-0.66508 0,-0.42478 0.23255,-0.66817 0.23409,-0.2434 0.64027,-0.2434 0.13177,0 0.25735,0.0279 0.12557,0.0264 0.24339,0.0806 z"
           style="font-style:normal;font-variant:normal;font-weight:normal;font-stretch:normal;font-size:medium;line-height:1.10000002;font-family:'DejaVu Sans';-inkscape-font-specification:'DejaVu Sans';text-align:start;letter-spacing:0px;word-spacing:0px;text-anchor:start;fill:#000000;fill-opacity:1;stroke:none;stroke-width:0.26458332"
           id="path2384"
           inkscape:connector-curvature="0" />
        <path
           d="m 123.29536,114.9409 v 0.13953 h -1.31155 q 0.0186,0.29455 0.17673,0.44958 0.15968,0.15348 0.44339,0.15348 0.16433,0 0.31781,-0.0403 0.15503,-0.0403 0.30696,-0.12092 v 0.26975 q -0.15348,0.0651 -0.31471,0.0992 -0.16123,0.0341 -0.32712,0.0341 -0.41547,0 -0.65887,-0.24185 -0.24185,-0.24184 -0.24185,-0.65422 0,-0.42633 0.22945,-0.67593 0.23099,-0.25115 0.62166,-0.25115 0.35037,0 0.55346,0.22635 0.20464,0.22479 0.20464,0.61236 z m -0.28526,-0.0837 q -0.003,-0.2341 -0.13177,-0.37363 -0.12712,-0.13952 -0.33796,-0.13952 -0.23875,0 -0.38293,0.13487 -0.14262,0.13488 -0.16433,0.37983 z"
           style="font-style:normal;font-variant:normal;font-weight:normal;font-stretch:normal;font-size:medium;line-height:1.10000002;font-family:'DejaVu Sans';-inkscape-font-specification:'DejaVu Sans';text-align:start;letter-spacing:0px;word-spacing:0px;text-anchor:start;fill:#000000;fill-opacity:1;stroke:none;stroke-width:0.26458332"
           id="path2386"
           inkscape:connector-curvature="0" />
        <path
           d="m 124.87046,114.19521 v 0.26975 q -0.12093,-0.062 -0.25115,-0.093 -0.13023,-0.031 -0.26975,-0.031 -0.21239,0 -0.31936,0.0651 -0.10542,0.0651 -0.10542,0.19534 0,0.0992 0.076,0.15658 0.076,0.0558 0.30541,0.10697 l 0.0977,0.0217 q 0.30386,0.0651 0.43098,0.18449 0.12867,0.11782 0.12867,0.33021 0,0.24184 -0.19223,0.38292 -0.19069,0.14108 -0.52555,0.14108 -0.13953,0 -0.29146,-0.0279 -0.15038,-0.0263 -0.31781,-0.0806 v -0.29456 q 0.15813,0.0822 0.31161,0.12402 0.15348,0.0403 0.30386,0.0403 0.20154,0 0.31006,-0.0682 0.10852,-0.0698 0.10852,-0.19534 0,-0.11627 -0.0791,-0.17828 -0.0775,-0.062 -0.34261,-0.11937 l -0.0992,-0.0233 q -0.2651,-0.0558 -0.38292,-0.17053 -0.11782,-0.11627 -0.11782,-0.31781 0,-0.24495 0.17363,-0.37827 0.17363,-0.13333 0.49299,-0.13333 0.15813,0 0.29766,0.0233 0.13952,0.0233 0.25735,0.0698 z"
           style="font-style:normal;font-variant:normal;font-weight:normal;font-stretch:normal;font-size:medium;line-height:1.10000002;font-family:'DejaVu Sans';-inkscape-font-specification:'DejaVu Sans';text-align:start;letter-spacing:0px;word-spacing:0px;text-anchor:start;fill:#000000;fill-opacity:1;stroke:none;stroke-width:0.26458332"
           id="path2388"
           inkscape:connector-curvature="0" />
        <path
           d="m 126.7122,113.65106 v 0.49299 h 0.58756 v 0.22169 h -0.58756 v 0.94258 q 0,0.21239 0.0574,0.27285 0.0589,0.0605 0.2372,0.0605 h 0.293 v 0.23875 h -0.293 q -0.33021,0 -0.45579,-0.12247 -0.12557,-0.12403 -0.12557,-0.44959 v -0.94258 h -0.20929 v -0.22169 h 0.20929 v -0.49299 z"
           style="font-style:normal;font-variant:normal;font-weight:normal;font-stretch:normal;font-size:medium;line-height:1.10000002;font-family:'DejaVu Sans';-inkscape-font-specification:'DejaVu Sans';text-align:start;letter-spacing:0px;word-spacing:0px;text-anchor:start;fill:#000000;fill-opacity:1;stroke:none;stroke-width:0.26458332"
           id="path2390"
           inkscape:connector-curvature="0" />
        <path
           d="m 129.11981,114.83238 v 1.048 h -0.28526 v -1.0387 q 0,-0.24649 -0.0961,-0.36897 -0.0961,-0.12247 -0.28836,-0.12247 -0.23099,0 -0.36432,0.14728 -0.13332,0.14728 -0.13332,0.40152 v 0.98134 h -0.28681 v -2.41226 h 0.28681 v 0.94568 q 0.10232,-0.15658 0.24029,-0.23409 0.13953,-0.0775 0.32091,-0.0775 0.29921,0 0.45269,0.18604 0.15348,0.18448 0.15348,0.54415 z"
           style="font-style:normal;font-variant:normal;font-weight:normal;font-stretch:normal;font-size:medium;line-height:1.10000002;font-family:'DejaVu Sans';-inkscape-font-specification:'DejaVu Sans';text-align:start;letter-spacing:0px;word-spacing:0px;text-anchor:start;fill:#000000;fill-opacity:1;stroke:none;stroke-width:0.26458332"
           id="path2392"
           inkscape:connector-curvature="0" />
        <path
           d="m 131.17705,114.9409 v 0.13953 h -1.31155 q 0.0186,0.29455 0.17673,0.44958 0.15968,0.15348 0.44339,0.15348 0.16433,0 0.31781,-0.0403 0.15503,-0.0403 0.30695,-0.12092 v 0.26975 q -0.15347,0.0651 -0.3147,0.0992 -0.16124,0.0341 -0.32712,0.0341 -0.41548,0 -0.65887,-0.24185 -0.24185,-0.24184 -0.24185,-0.65422 0,-0.42633 0.22945,-0.67593 0.23099,-0.25115 0.62166,-0.25115 0.35037,0 0.55346,0.22635 0.20464,0.22479 0.20464,0.61236 z m -0.28526,-0.0837 q -0.003,-0.2341 -0.13177,-0.37363 -0.12713,-0.13952 -0.33797,-0.13952 -0.23874,0 -0.38292,0.13487 -0.14262,0.13488 -0.16433,0.37983 z"
           style="font-style:normal;font-variant:normal;font-weight:normal;font-stretch:normal;font-size:medium;line-height:1.10000002;font-family:'DejaVu Sans';-inkscape-font-specification:'DejaVu Sans';text-align:start;letter-spacing:0px;word-spacing:0px;text-anchor:start;fill:#000000;fill-opacity:1;stroke:none;stroke-width:0.26458332"
           id="path2394"
           inkscape:connector-curvature="0" />
        <path
           d="m 132.45139,114.14405 h 0.30231 l 0.5426,1.45728 0.5426,-1.45728 h 0.30231 l -0.65112,1.73633 h -0.38758 z"
           style="font-style:normal;font-variant:normal;font-weight:normal;font-stretch:normal;font-size:medium;line-height:1.10000002;font-family:'DejaVu Sans';-inkscape-font-specification:'DejaVu Sans';text-align:start;letter-spacing:0px;word-spacing:0px;text-anchor:start;fill:#000000;fill-opacity:1;stroke:none;stroke-width:0.26458332"
           id="path2396"
           inkscape:connector-curvature="0" />
        <path
           d="m 136.02016,114.9409 v 0.13953 h -1.31155 q 0.0186,0.29455 0.17674,0.44958 0.15968,0.15348 0.44338,0.15348 0.16433,0 0.31781,-0.0403 0.15503,-0.0403 0.30696,-0.12092 v 0.26975 q -0.15348,0.0651 -0.31471,0.0992 -0.16123,0.0341 -0.32711,0.0341 -0.41548,0 -0.65888,-0.24185 -0.24184,-0.24184 -0.24184,-0.65422 0,-0.42633 0.22944,-0.67593 0.231,-0.25115 0.62167,-0.25115 0.35037,0 0.55345,0.22635 0.20464,0.22479 0.20464,0.61236 z m -0.28525,-0.0837 q -0.003,-0.2341 -0.13178,-0.37363 -0.12712,-0.13952 -0.33796,-0.13952 -0.23875,0 -0.38292,0.13487 -0.14263,0.13488 -0.16433,0.37983 z"
           style="font-style:normal;font-variant:normal;font-weight:normal;font-stretch:normal;font-size:medium;line-height:1.10000002;font-family:'DejaVu Sans';-inkscape-font-specification:'DejaVu Sans';text-align:start;letter-spacing:0px;word-spacing:0px;text-anchor:start;fill:#000000;fill-opacity:1;stroke:none;stroke-width:0.26458332"
           id="path2398"
           inkscape:connector-curvature="0" />
        <path
           d="m 137.49449,114.4107 q -0.0481,-0.0279 -0.10542,-0.0403 -0.0558,-0.0139 -0.12402,-0.0139 -0.24185,0 -0.37207,0.15813 -0.12868,0.15658 -0.12868,0.45114 v 0.91467 h -0.2868 v -1.73633 h 0.2868 v 0.26975 q 0.0899,-0.15813 0.2341,-0.23409 0.14417,-0.0775 0.35036,-0.0775 0.0295,0 0.0651,0.005 0.0357,0.003 0.0791,0.0109 z"
           style="font-style:normal;font-variant:normal;font-weight:normal;font-stretch:normal;font-size:medium;line-height:1.10000002;font-family:'DejaVu Sans';-inkscape-font-specification:'DejaVu Sans';text-align:start;letter-spacing:0px;word-spacing:0px;text-anchor:start;fill:#000000;fill-opacity:1;stroke:none;stroke-width:0.26458332"
           id="path2400"
           inkscape:connector-curvature="0" />
        <path
           d="m 138.88355,114.4076 v -0.93948 h 0.28526 v 2.41226 h -0.28526 v -0.26045 q -0.0899,0.15503 -0.22789,0.23099 -0.13643,0.0744 -0.32866,0.0744 -0.31471,0 -0.51315,-0.25115 -0.19689,-0.25115 -0.19689,-0.66043 0,-0.40927 0.19689,-0.66042 0.19844,-0.25115 0.51315,-0.25115 0.19223,0 0.32866,0.076 0.13798,0.0744 0.22789,0.22944 z m -0.97203,0.60616 q 0,0.31471 0.12867,0.49455 0.13023,0.17828 0.35657,0.17828 0.22634,0 0.35657,-0.17828 0.13022,-0.17984 0.13022,-0.49455 0,-0.3147 -0.13022,-0.49299 -0.13023,-0.17983 -0.35657,-0.17983 -0.22634,0 -0.35657,0.17983 -0.12867,0.17829 -0.12867,0.49299 z"
           style="font-style:normal;font-variant:normal;font-weight:normal;font-stretch:normal;font-size:medium;line-height:1.10000002;font-family:'DejaVu Sans';-inkscape-font-specification:'DejaVu Sans';text-align:start;letter-spacing:0px;word-spacing:0px;text-anchor:start;fill:#000000;fill-opacity:1;stroke:none;stroke-width:0.26458332"
           id="path2402"
           inkscape:connector-curvature="0" />
        <path
           d="m 139.75637,114.14405 h 0.28525 v 1.73633 h -0.28525 z m 0,-0.67593 h 0.28525 v 0.36122 h -0.28525 z"
           style="font-style:normal;font-variant:normal;font-weight:normal;font-stretch:normal;font-size:medium;line-height:1.10000002;font-family:'DejaVu Sans';-inkscape-font-specification:'DejaVu Sans';text-align:start;letter-spacing:0px;word-spacing:0px;text-anchor:start;fill:#000000;fill-opacity:1;stroke:none;stroke-width:0.26458332"
           id="path2404"
           inkscape:connector-curvature="0" />
        <path
           d="m 141.88647,114.21071 v 0.26665 q -0.12092,-0.0667 -0.2434,-0.0992 -0.12092,-0.0341 -0.24494,-0.0341 -0.27751,0 -0.43098,0.17673 -0.15348,0.17518 -0.15348,0.49299 0,0.31782 0.15348,0.49455 0.15347,0.17518 0.43098,0.17518 0.12402,0 0.24494,-0.0326 0.12248,-0.0341 0.2434,-0.10077 v 0.26355 q -0.11937,0.0558 -0.24805,0.0837 -0.12712,0.0279 -0.2713,0.0279 -0.39222,0 -0.62322,-0.2465 -0.23099,-0.2465 -0.23099,-0.66508 0,-0.42478 0.23254,-0.66817 0.2341,-0.2434 0.64027,-0.2434 0.13178,0 0.25735,0.0279 0.12558,0.0264 0.2434,0.0806 z"
           style="font-style:normal;font-variant:normal;font-weight:normal;font-stretch:normal;font-size:medium;line-height:1.10000002;font-family:'DejaVu Sans';-inkscape-font-specification:'DejaVu Sans';text-align:start;letter-spacing:0px;word-spacing:0px;text-anchor:start;fill:#000000;fill-opacity:1;stroke:none;stroke-width:0.26458332"
           id="path2406"
           inkscape:connector-curvature="0" />
        <path
           d="m 142.66782,113.65106 v 0.49299 h 0.58756 v 0.22169 h -0.58756 v 0.94258 q 0,0.21239 0.0574,0.27285 0.0589,0.0605 0.2372,0.0605 h 0.293 v 0.23875 h -0.293 q -0.33022,0 -0.45579,-0.12247 -0.12557,-0.12403 -0.12557,-0.44959 v -0.94258 h -0.20929 v -0.22169 h 0.20929 v -0.49299 z"
           style="font-style:normal;font-variant:normal;font-weight:normal;font-stretch:normal;font-size:medium;line-height:1.10000002;font-family:'DejaVu Sans';-inkscape-font-specification:'DejaVu Sans';text-align:start;letter-spacing:0px;word-spacing:0px;text-anchor:start;fill:#000000;fill-opacity:1;stroke:none;stroke-width:0.26458332"
           id="path2408"
           inkscape:connector-curvature="0" />
        <path
           d="m 100.87348,92.56338 v 0.920874 h -0.28681 v -2.396752 h 0.28681 v 0.263549 q 0.0899,-0.155029 0.22634,-0.229443 0.13797,-0.07596 0.32866,-0.07596 0.31626,0 0.51315,0.251147 0.19843,0.251148 0.19843,0.660425 0,0.409277 -0.19843,0.660425 -0.19689,0.251147 -0.51315,0.251147 -0.19069,0 -0.32866,-0.07441 -0.13643,-0.07596 -0.22634,-0.230994 z m 0.97048,-0.606164 q 0,-0.31471 -0.13023,-0.492993 -0.12867,-0.179834 -0.35501,-0.179834 -0.22635,0 -0.35657,0.179834 -0.12867,0.178283 -0.12867,0.492993 0,0.314709 0.12867,0.494543 0.13022,0.178284 0.35657,0.178284 0.22634,0 0.35501,-0.178284 0.13023,-0.179834 0.13023,-0.494543 z"
           style="font-style:normal;font-variant:normal;font-weight:normal;font-stretch:normal;font-size:medium;line-height:1.10000002;font-family:'DejaVu Sans';-inkscape-font-specification:'DejaVu Sans';text-align:start;letter-spacing:0px;word-spacing:0px;text-anchor:start;fill:#000000;fill-opacity:1;stroke:none;stroke-width:0.26458332"
           id="path2411"
           inkscape:connector-curvature="0" />
        <path
           d="m 103.61904,91.354152 q -0.0481,-0.02791 -0.10542,-0.04031 -0.0558,-0.01395 -0.12402,-0.01395 -0.24184,0 -0.37207,0.15813 -0.12867,0.156579 -0.12867,0.451135 v 0.914673 h -0.28681 v -1.736328 h 0.28681 v 0.269751 q 0.0899,-0.15813 0.23409,-0.234095 0.14418,-0.07751 0.35037,-0.07751 0.0294,0 0.0651,0.0047 0.0357,0.0031 0.0791,0.01085 z"
           style="font-style:normal;font-variant:normal;font-weight:normal;font-stretch:normal;font-size:medium;line-height:1.10000002;font-family:'DejaVu Sans';-inkscape-font-specification:'DejaVu Sans';text-align:start;letter-spacing:0px;word-spacing:0px;text-anchor:start;fill:#000000;fill-opacity:1;stroke:none;stroke-width:0.26458332"
           id="path2413"
           inkscape:connector-curvature="0" />
        <path
           d="m 103.92135,91.087502 h 0.28526 v 1.736328 h -0.28526 z m 0,-0.675928 h 0.28526 v 0.361218 h -0.28526 z"
           style="font-style:normal;font-variant:normal;font-weight:normal;font-stretch:normal;font-size:medium;line-height:1.10000002;font-family:'DejaVu Sans';-inkscape-font-specification:'DejaVu Sans';text-align:start;letter-spacing:0px;word-spacing:0px;text-anchor:start;fill:#000000;fill-opacity:1;stroke:none;stroke-width:0.26458332"
           id="path2415"
           inkscape:connector-curvature="0" />
        <path
           d="m 105.90883,91.138661 v 0.269751 q -0.12093,-0.06201 -0.25115,-0.09302 -0.13023,-0.03101 -0.26975,-0.03101 -0.21239,0 -0.31936,0.06511 -0.10542,0.06511 -0.10542,0.195337 0,0.09922 0.076,0.15658 0.076,0.05581 0.30541,0.10697 l 0.0977,0.0217 q 0.30386,0.06511 0.43098,0.184485 0.12867,0.117822 0.12867,0.330212 0,0.241846 -0.19223,0.382922 -0.19069,0.141077 -0.52555,0.141077 -0.13953,0 -0.29146,-0.0279 -0.15037,-0.02636 -0.31781,-0.08062 v -0.294556 q 0.15813,0.08217 0.31161,0.124023 0.15348,0.04031 0.30386,0.04031 0.20154,0 0.31006,-0.06821 0.10852,-0.06976 0.10852,-0.195337 0,-0.116272 -0.0791,-0.178283 -0.0775,-0.06201 -0.34261,-0.119373 l -0.0992,-0.02325 q -0.2651,-0.05581 -0.38292,-0.170533 -0.11782,-0.116272 -0.11782,-0.31781 0,-0.244946 0.17363,-0.378271 0.17363,-0.133325 0.49299,-0.133325 0.15813,0 0.29766,0.02325 0.13952,0.02325 0.25735,0.06976 z"
           style="font-style:normal;font-variant:normal;font-weight:normal;font-stretch:normal;font-size:medium;line-height:1.10000002;font-family:'DejaVu Sans';-inkscape-font-specification:'DejaVu Sans';text-align:start;letter-spacing:0px;word-spacing:0px;text-anchor:start;fill:#000000;fill-opacity:1;stroke:none;stroke-width:0.26458332"
           id="path2417"
           inkscape:connector-curvature="0" />
        <path
           d="m 107.13046,91.287489 q -0.22945,0 -0.36277,0.179834 -0.13333,0.178284 -0.13333,0.489893 0,0.311609 0.13178,0.491443 0.13332,0.178283 0.36432,0.178283 0.22789,0 0.36122,-0.179834 0.13332,-0.179834 0.13332,-0.489892 0,-0.308508 -0.13332,-0.488342 -0.13333,-0.181385 -0.36122,-0.181385 z m 0,-0.241845 q 0.37207,0 0.58446,0.241845 0.21239,0.241846 0.21239,0.669727 0,0.42633 -0.21239,0.669726 -0.21239,0.241846 -0.58446,0.241846 -0.37362,0 -0.58601,-0.241846 -0.21084,-0.243396 -0.21084,-0.669726 0,-0.427881 0.21084,-0.669727 0.21239,-0.241845 0.58601,-0.241845 z"
           style="font-style:normal;font-variant:normal;font-weight:normal;font-stretch:normal;font-size:medium;line-height:1.10000002;font-family:'DejaVu Sans';-inkscape-font-specification:'DejaVu Sans';text-align:start;letter-spacing:0px;word-spacing:0px;text-anchor:start;fill:#000000;fill-opacity:1;stroke:none;stroke-width:0.26458332"
           id="path2419"
           inkscape:connector-curvature="0" />
        <path
           d="m 109.84192,91.775832 v 1.047998 h -0.28525 v -1.038697 q 0,-0.246496 -0.0961,-0.368969 -0.0961,-0.122473 -0.28836,-0.122473 -0.23099,0 -0.36432,0.147277 -0.13332,0.147278 -0.13332,0.401526 v 0.981336 h -0.2868 v -1.736328 h 0.2868 v 0.269751 q 0.10232,-0.15658 0.2403,-0.234095 0.13952,-0.07751 0.32091,-0.07751 0.2992,0 0.45268,0.186035 0.15348,0.184485 0.15348,0.544153 z"
           style="font-style:normal;font-variant:normal;font-weight:normal;font-stretch:normal;font-size:medium;line-height:1.10000002;font-family:'DejaVu Sans';-inkscape-font-specification:'DejaVu Sans';text-align:start;letter-spacing:0px;word-spacing:0px;text-anchor:start;fill:#000000;fill-opacity:1;stroke:none;stroke-width:0.26458332"
           id="path2421"
           inkscape:connector-curvature="0" />
        <path
           d="m 111.89916,91.884352 v 0.139526 h -1.31155 q 0.0186,0.294556 0.17673,0.449585 0.15968,0.153479 0.44339,0.153479 0.16433,0 0.31781,-0.04031 0.15503,-0.04031 0.30696,-0.120923 v 0.269751 q -0.15348,0.06511 -0.31471,0.09922 -0.16123,0.03411 -0.32711,0.03411 -0.41548,0 -0.65888,-0.241846 -0.24185,-0.241845 -0.24185,-0.654223 0,-0.426331 0.22945,-0.675928 0.23099,-0.251147 0.62167,-0.251147 0.35036,0 0.55345,0.226342 0.20464,0.224793 0.20464,0.612366 z m -0.28525,-0.08372 q -0.003,-0.234094 -0.13178,-0.37362 -0.12712,-0.139527 -0.33796,-0.139527 -0.23875,0 -0.38293,0.134876 -0.14262,0.134875 -0.16433,0.379822 z"
           style="font-style:normal;font-variant:normal;font-weight:normal;font-stretch:normal;font-size:medium;line-height:1.10000002;font-family:'DejaVu Sans';-inkscape-font-specification:'DejaVu Sans';text-align:start;letter-spacing:0px;word-spacing:0px;text-anchor:start;fill:#000000;fill-opacity:1;stroke:none;stroke-width:0.26458332"
           id="path2423"
           inkscape:connector-curvature="0" />
        <path
           d="m 113.37349,91.354152 q -0.0481,-0.02791 -0.10542,-0.04031 -0.0558,-0.01395 -0.12403,-0.01395 -0.24184,0 -0.37207,0.15813 -0.12867,0.156579 -0.12867,0.451135 v 0.914673 h -0.2868 v -1.736328 h 0.2868 v 0.269751 q 0.0899,-0.15813 0.23409,-0.234095 0.14418,-0.07751 0.35037,-0.07751 0.0295,0 0.0651,0.0047 0.0357,0.0031 0.0791,0.01085 z"
           style="font-style:normal;font-variant:normal;font-weight:normal;font-stretch:normal;font-size:medium;line-height:1.10000002;font-family:'DejaVu Sans';-inkscape-font-specification:'DejaVu Sans';text-align:start;letter-spacing:0px;word-spacing:0px;text-anchor:start;fill:#000000;fill-opacity:1;stroke:none;stroke-width:0.26458332"
           id="path2425"
           inkscape:connector-curvature="0" />
        <path
           d="m 115.93612,91.154164 v 0.266651 q -0.12092,-0.06666 -0.24339,-0.09922 -0.12093,-0.03411 -0.24495,-0.03411 -0.2775,0 -0.43098,0.176734 -0.15348,0.175183 -0.15348,0.492993 0,0.31781 0.15348,0.494543 0.15348,0.175183 0.43098,0.175183 0.12402,0 0.24495,-0.03256 0.12247,-0.03411 0.24339,-0.100769 v 0.26355 q -0.11937,0.05581 -0.24804,0.08372 -0.12713,0.0279 -0.27131,0.0279 -0.39222,0 -0.62321,-0.246496 -0.231,-0.246497 -0.231,-0.665076 0,-0.42478 0.23255,-0.668176 0.23409,-0.243396 0.64027,-0.243396 0.13177,0 0.25735,0.02791 0.12557,0.02635 0.24339,0.08061 z"
           style="font-style:normal;font-variant:normal;font-weight:normal;font-stretch:normal;font-size:medium;line-height:1.10000002;font-family:'DejaVu Sans';-inkscape-font-specification:'DejaVu Sans';text-align:start;letter-spacing:0px;word-spacing:0px;text-anchor:start;fill:#000000;fill-opacity:1;stroke:none;stroke-width:0.26458332"
           id="path2427"
           inkscape:connector-curvature="0" />
        <path
           d="m 117.10814,91.287489 q -0.22944,0 -0.36277,0.179834 -0.13332,0.178284 -0.13332,0.489893 0,0.311609 0.13177,0.491443 0.13333,0.178283 0.36432,0.178283 0.2279,0 0.36122,-0.179834 0.13333,-0.179834 0.13333,-0.489892 0,-0.308508 -0.13333,-0.488342 -0.13332,-0.181385 -0.36122,-0.181385 z m 0,-0.241845 q 0.37207,0 0.58446,0.241845 0.21239,0.241846 0.21239,0.669727 0,0.42633 -0.21239,0.669726 -0.21239,0.241846 -0.58446,0.241846 -0.37362,0 -0.58601,-0.241846 -0.21084,-0.243396 -0.21084,-0.669726 0,-0.427881 0.21084,-0.669727 0.21239,-0.241845 0.58601,-0.241845 z"
           style="font-style:normal;font-variant:normal;font-weight:normal;font-stretch:normal;font-size:medium;line-height:1.10000002;font-family:'DejaVu Sans';-inkscape-font-specification:'DejaVu Sans';text-align:start;letter-spacing:0px;word-spacing:0px;text-anchor:start;fill:#000000;fill-opacity:1;stroke:none;stroke-width:0.26458332"
           id="path2429"
           inkscape:connector-curvature="0" />
        <path
           d="m 119.72814,91.420815 q 0.10697,-0.192237 0.2558,-0.283704 0.14882,-0.09147 0.35036,-0.09147 0.2713,0 0.41858,0.190686 0.14728,0.189135 0.14728,0.539502 v 1.047998 h -0.2868 V 91.78513 q 0,-0.249597 -0.0884,-0.37052 -0.0884,-0.120922 -0.26975,-0.120922 -0.22169,0 -0.35037,0.147277 -0.12867,0.147278 -0.12867,0.401526 v 0.981336 h -0.28681 V 91.78513 q 0,-0.251147 -0.0884,-0.37052 -0.0884,-0.120922 -0.27286,-0.120922 -0.21859,0 -0.34726,0.148828 -0.12868,0.147277 -0.12868,0.399975 v 0.981336 h -0.2868 v -1.736328 h 0.2868 v 0.269751 q 0.0977,-0.159681 0.2341,-0.235645 0.13642,-0.07596 0.32401,-0.07596 0.18914,0 0.32091,0.09612 0.13333,0.09612 0.19689,0.279053 z"
           style="font-style:normal;font-variant:normal;font-weight:normal;font-stretch:normal;font-size:medium;line-height:1.10000002;font-family:'DejaVu Sans';-inkscape-font-specification:'DejaVu Sans';text-align:start;letter-spacing:0px;word-spacing:0px;text-anchor:start;fill:#000000;fill-opacity:1;stroke:none;stroke-width:0.26458332"
           id="path2431"
           inkscape:connector-curvature="0" />
        <path
           d="m 122.82252,91.420815 q 0.10697,-0.192237 0.2558,-0.283704 0.14883,-0.09147 0.35037,-0.09147 0.2713,0 0.41858,0.190686 0.14727,0.189135 0.14727,0.539502 v 1.047998 h -0.2868 V 91.78513 q 0,-0.249597 -0.0884,-0.37052 -0.0884,-0.120922 -0.26975,-0.120922 -0.22169,0 -0.35036,0.147277 -0.12868,0.147278 -0.12868,0.401526 v 0.981336 h -0.2868 V 91.78513 q 0,-0.251147 -0.0884,-0.37052 -0.0884,-0.120922 -0.27285,-0.120922 -0.21859,0 -0.34727,0.148828 -0.12867,0.147277 -0.12867,0.399975 v 0.981336 h -0.2868 v -1.736328 h 0.2868 v 0.269751 q 0.0977,-0.159681 0.23409,-0.235645 0.13643,-0.07596 0.32402,-0.07596 0.18913,0 0.32091,0.09612 0.13332,0.09612 0.19688,0.279053 z"
           style="font-style:normal;font-variant:normal;font-weight:normal;font-stretch:normal;font-size:medium;line-height:1.10000002;font-family:'DejaVu Sans';-inkscape-font-specification:'DejaVu Sans';text-align:start;letter-spacing:0px;word-spacing:0px;text-anchor:start;fill:#000000;fill-opacity:1;stroke:none;stroke-width:0.26458332"
           id="path2433"
           inkscape:connector-curvature="0" />
        <path
           d="m 124.56505,91.087502 h 0.28526 v 1.736328 h -0.28526 z m 0,-0.675928 h 0.28526 v 0.361218 h -0.28526 z"
           style="font-style:normal;font-variant:normal;font-weight:normal;font-stretch:normal;font-size:medium;line-height:1.10000002;font-family:'DejaVu Sans';-inkscape-font-specification:'DejaVu Sans';text-align:start;letter-spacing:0px;word-spacing:0px;text-anchor:start;fill:#000000;fill-opacity:1;stroke:none;stroke-width:0.26458332"
           id="path2435"
           inkscape:connector-curvature="0" />
        <path
           d="m 125.72777,90.594508 v 0.492994 h 0.58756 v 0.221691 h -0.58756 v 0.942579 q 0,0.21239 0.0574,0.272851 0.0589,0.06046 0.2372,0.06046 h 0.293 v 0.238745 h -0.293 q -0.33021,0 -0.45579,-0.122473 -0.12557,-0.124024 -0.12557,-0.449585 v -0.942579 h -0.20929 V 91.0875 h 0.20929 v -0.492994 z"
           style="font-style:normal;font-variant:normal;font-weight:normal;font-stretch:normal;font-size:medium;line-height:1.10000002;font-family:'DejaVu Sans';-inkscape-font-specification:'DejaVu Sans';text-align:start;letter-spacing:0px;word-spacing:0px;text-anchor:start;fill:#000000;fill-opacity:1;stroke:none;stroke-width:0.26458332"
           id="path2437"
           inkscape:connector-curvature="0" />
        <path
           d="m 127.79896,91.138661 v 0.269751 q -0.12092,-0.06201 -0.25114,-0.09302 -0.13023,-0.03101 -0.26976,-0.03101 -0.21239,0 -0.31936,0.06511 -0.10542,0.06511 -0.10542,0.195337 0,0.09922 0.076,0.15658 0.076,0.05581 0.30541,0.10697 l 0.0977,0.0217 q 0.30386,0.06511 0.43099,0.184485 0.12867,0.117822 0.12867,0.330212 0,0.241846 -0.19224,0.382922 -0.19068,0.141077 -0.52555,0.141077 -0.13952,0 -0.29145,-0.0279 -0.15038,-0.02636 -0.31781,-0.08062 v -0.294556 q 0.15813,0.08217 0.31161,0.124023 0.15348,0.04031 0.30386,0.04031 0.20153,0 0.31005,-0.06821 0.10852,-0.06976 0.10852,-0.195337 0,-0.116272 -0.0791,-0.178283 -0.0775,-0.06201 -0.34261,-0.119373 l -0.0992,-0.02325 q -0.2651,-0.05581 -0.38293,-0.170533 -0.11782,-0.116272 -0.11782,-0.31781 0,-0.244946 0.17363,-0.378271 0.17364,-0.133325 0.493,-0.133325 0.15813,0 0.29765,0.02325 0.13953,0.02325 0.25735,0.06976 z"
           style="font-style:normal;font-variant:normal;font-weight:normal;font-stretch:normal;font-size:medium;line-height:1.10000002;font-family:'DejaVu Sans';-inkscape-font-specification:'DejaVu Sans';text-align:start;letter-spacing:0px;word-spacing:0px;text-anchor:start;fill:#000000;fill-opacity:1;stroke:none;stroke-width:0.26458332"
           id="path2439"
           inkscape:connector-curvature="0" />
        <path
           d="m 130.14766,91.951015 q -0.34572,0 -0.47904,0.07906 -0.13333,0.07906 -0.13333,0.269751 0,0.151928 0.0992,0.241845 0.10077,0.08837 0.27285,0.08837 0.2372,0 0.37982,-0.167432 0.14418,-0.168982 0.14418,-0.448034 v -0.06356 z m 0.56895,-0.117823 v 0.990638 h -0.28525 v -0.26355 q -0.0977,0.15813 -0.2434,0.234094 -0.14572,0.07441 -0.35656,0.07441 -0.26665,0 -0.42478,-0.148828 -0.15658,-0.150378 -0.15658,-0.401526 0,-0.293005 0.19533,-0.441833 0.19689,-0.148828 0.58601,-0.148828 h 0.39998 v -0.02791 q 0,-0.196887 -0.13022,-0.303857 -0.12868,-0.108521 -0.36277,-0.108521 -0.14883,0 -0.28991,0.03566 -0.14107,0.03566 -0.2713,0.10697 v -0.26355 q 0.15658,-0.06046 0.30386,-0.08992 0.14728,-0.03101 0.2868,-0.03101 0.37672,0 0.56276,0.195337 0.18603,0.195336 0.18603,0.592211 z"
           style="font-style:normal;font-variant:normal;font-weight:normal;font-stretch:normal;font-size:medium;line-height:1.10000002;font-family:'DejaVu Sans';-inkscape-font-specification:'DejaVu Sans';text-align:start;letter-spacing:0px;word-spacing:0px;text-anchor:start;fill:#000000;fill-opacity:1;stroke:none;stroke-width:0.26458332"
           id="path2441"
           inkscape:connector-curvature="0" />
        <path
           d="m 133.56605,91.154164 v 0.266651 q -0.12092,-0.06666 -0.24339,-0.09922 -0.12093,-0.03411 -0.24495,-0.03411 -0.2775,0 -0.43098,0.176734 -0.15348,0.175183 -0.15348,0.492993 0,0.31781 0.15348,0.494543 0.15348,0.175183 0.43098,0.175183 0.12402,0 0.24495,-0.03256 0.12247,-0.03411 0.24339,-0.100769 v 0.26355 q -0.11937,0.05581 -0.24804,0.08372 -0.12713,0.0279 -0.2713,0.0279 -0.39223,0 -0.62322,-0.246496 -0.231,-0.246497 -0.231,-0.665076 0,-0.42478 0.23255,-0.668176 0.23409,-0.243396 0.64027,-0.243396 0.13177,0 0.25735,0.02791 0.12557,0.02635 0.24339,0.08061 z"
           style="font-style:normal;font-variant:normal;font-weight:normal;font-stretch:normal;font-size:medium;line-height:1.10000002;font-family:'DejaVu Sans';-inkscape-font-specification:'DejaVu Sans';text-align:start;letter-spacing:0px;word-spacing:0px;text-anchor:start;fill:#000000;fill-opacity:1;stroke:none;stroke-width:0.26458332"
           id="path2443"
           inkscape:connector-curvature="0" />
        <path
           d="m 135.07139,91.354152 q -0.0481,-0.02791 -0.10542,-0.04031 -0.0558,-0.01395 -0.12403,-0.01395 -0.24184,0 -0.37207,0.15813 -0.12867,0.156579 -0.12867,0.451135 v 0.914673 h -0.2868 v -1.736328 h 0.2868 v 0.269751 q 0.0899,-0.15813 0.23409,-0.234095 0.14418,-0.07751 0.35037,-0.07751 0.0295,0 0.0651,0.0047 0.0357,0.0031 0.0791,0.01085 z"
           style="font-style:normal;font-variant:normal;font-weight:normal;font-stretch:normal;font-size:medium;line-height:1.10000002;font-family:'DejaVu Sans';-inkscape-font-specification:'DejaVu Sans';text-align:start;letter-spacing:0px;word-spacing:0px;text-anchor:start;fill:#000000;fill-opacity:1;stroke:none;stroke-width:0.26458332"
           id="path2445"
           inkscape:connector-curvature="0" />
        <path
           d="m 135.3737,91.087502 h 0.28525 v 1.736328 h -0.28525 z m 0,-0.675928 h 0.28525 v 0.361218 h -0.28525 z"
           style="font-style:normal;font-variant:normal;font-weight:normal;font-stretch:normal;font-size:medium;line-height:1.10000002;font-family:'DejaVu Sans';-inkscape-font-specification:'DejaVu Sans';text-align:start;letter-spacing:0px;word-spacing:0px;text-anchor:start;fill:#000000;fill-opacity:1;stroke:none;stroke-width:0.26458332"
           id="path2447"
           inkscape:connector-curvature="0" />
        <path
           d="m 137.60612,91.420815 q 0.10697,-0.192237 0.2558,-0.283704 0.14882,-0.09147 0.35036,-0.09147 0.2713,0 0.41858,0.190686 0.14728,0.189135 0.14728,0.539502 v 1.047998 h -0.28681 V 91.78513 q 0,-0.249597 -0.0884,-0.37052 -0.0884,-0.120922 -0.26975,-0.120922 -0.2217,0 -0.35037,0.147277 -0.12867,0.147278 -0.12867,0.401526 v 0.981336 h -0.28681 V 91.78513 q 0,-0.251147 -0.0884,-0.37052 -0.0884,-0.120922 -0.27286,-0.120922 -0.21859,0 -0.34726,0.148828 -0.12868,0.147277 -0.12868,0.399975 v 0.981336 h -0.2868 v -1.736328 h 0.2868 v 0.269751 q 0.0977,-0.159681 0.2341,-0.235645 0.13642,-0.07596 0.32401,-0.07596 0.18914,0 0.32091,0.09612 0.13333,0.09612 0.19689,0.279053 z"
           style="font-style:normal;font-variant:normal;font-weight:normal;font-stretch:normal;font-size:medium;line-height:1.10000002;font-family:'DejaVu Sans';-inkscape-font-specification:'DejaVu Sans';text-align:start;letter-spacing:0px;word-spacing:0px;text-anchor:start;fill:#000000;fill-opacity:1;stroke:none;stroke-width:0.26458332"
           id="path2449"
           inkscape:connector-curvature="0" />
        <path
           d="m 140.83383,91.884352 v 0.139526 h -1.31155 q 0.0186,0.294556 0.17673,0.449585 0.15968,0.153479 0.44339,0.153479 0.16433,0 0.31781,-0.04031 0.15502,-0.04031 0.30695,-0.120923 v 0.269751 q -0.15348,0.06511 -0.31471,0.09922 -0.16123,0.03411 -0.32711,0.03411 -0.41548,0 -0.65887,-0.241846 -0.24185,-0.241845 -0.24185,-0.654223 0,-0.426331 0.22944,-0.675928 0.231,-0.251147 0.62167,-0.251147 0.35037,0 0.55346,0.226342 0.20464,0.224793 0.20464,0.612366 z m -0.28526,-0.08372 q -0.003,-0.234094 -0.13177,-0.37362 -0.12713,-0.139527 -0.33797,-0.139527 -0.23874,0 -0.38292,0.134876 -0.14263,0.134875 -0.16433,0.379822 z"
           style="font-style:normal;font-variant:normal;font-weight:normal;font-stretch:normal;font-size:medium;line-height:1.10000002;font-family:'DejaVu Sans';-inkscape-font-specification:'DejaVu Sans';text-align:start;letter-spacing:0px;word-spacing:0px;text-anchor:start;fill:#000000;fill-opacity:1;stroke:none;stroke-width:0.26458332"
           id="path2451"
           inkscape:connector-curvature="0" />
        <circle
           id="path851"
           style="fill:#000000;stroke:none"
           cx="36.474701"
           cy="161.11755"
           r="1.5000002" />
        <circle
           id="path853"
           style="fill:#000000;stroke:none"
           cx="62.933037"
           cy="161.11755"
           r="1.5000002" />
        <circle
           id="path859"
           style="fill:#000000;stroke:none"
           cx="115.84972"
           cy="161.11755"
           r="1.5000002" />
        <circle
           id="path861"
           style="fill:#000000;stroke:none"
           cx="142.30804"
           cy="161.11755"
           r="1.5000002" />
        <circle
           id="path863"
           style="fill:#000000;stroke:none"
           cx="89.391365"
           cy="184.1741"
           r="1.5000002" />
        <circle
           id="path865"
           style="fill:#000000;stroke:none"
           cx="89.391365"
           cy="138.061"
           r="1.5000002" />
        <circle
           id="path867"
           style="fill:#000000;stroke:none"
           cx="89.391365"
           cy="115.00446"
           r="1.5000002" />
        <circle
           id="path869"
           style="fill:#000000;stroke:none"
           cx="89.391365"
           cy="91.947914"
           r="1.5000002" />
        <path
           sodipodi:nodetypes="cc"
           style="opacity:1;vector-effect:none;fill:none;fill-opacity:1;stroke:#000000;stroke-width:0.52899998;stroke-linecap:butt;stroke-linejoin:miter;stroke-miterlimit:4;stroke-dasharray:none;stroke-dashoffset:0;stroke-opacity:1;marker-end:url(#marker1081)"
           d="m 89.391367,138.06101 v 20.58274"
           id="path1075"
           inkscape:connector-curvature="0" />
        <circle
           r="1.5000002"
           cy="161.11755"
           cx="89.391365"
           style="fill:#000000;stroke:none"
           id="circle1077" />
        <path
           inkscape:connector-curvature="0"
           id="path3443"
           d="m 89.391367,161.27768 v 20.31488"
           style="opacity:1;vector-effect:none;fill:none;fill-opacity:1;stroke:#000000;stroke-width:0.52899998;stroke-linecap:butt;stroke-linejoin:miter;stroke-miterlimit:4;stroke-dasharray:none;stroke-dashoffset:0;stroke-opacity:1;marker-end:url(#marker3447)"
           sodipodi:nodetypes="cc" />
        <path
           style="opacity:1;vector-effect:none;fill:none;fill-opacity:1;stroke:#000000;stroke-width:0.52899998;stroke-linecap:butt;stroke-linejoin:miter;stroke-miterlimit:4;stroke-dasharray:none;stroke-dashoffset:0;stroke-opacity:1;marker-end:url(#marker31395)"
           d="m 89.391367,138.06101 24.467823,21.29781"
           id="path31391"
           inkscape:connector-curvature="0"
           sodipodi:nodetypes="cc" />
      </g>
    </g>
  </g>
</svg>
